<svg xmlns="http://www.w3.org/2000/svg" xmlns:xlink="http://www.w3.org/1999/xlink" width="400" zoomAndPan="magnify" viewBox="0 0 300 74.999997" height="100" preserveAspectRatio="xMidYMid meet" version="1.0"><defs><g/><clipPath id="id1"><path d="M 29 17 L 101 17 L 101 61.914062 L 29 61.914062 Z M 29 17 " clip-rule="nonzero"/></clipPath><clipPath id="id2"><path d="M 50 16.164062 L 60 16.164062 L 60 61.914062 L 50 61.914062 Z M 50 16.164062 " clip-rule="nonzero"/></clipPath><clipPath id="id3"><path d="M 60 26 L 70 26 L 70 61.914062 L 60 61.914062 Z M 60 26 " clip-rule="nonzero"/></clipPath><clipPath id="id4"><path d="M 70 16.164062 L 80 16.164062 L 80 61.914062 L 70 61.914062 Z M 70 16.164062 " clip-rule="nonzero"/></clipPath></defs><g clip-path="url(#id1)"><path fill="#4339cb" d="M 100.011719 42.476562 L 100.011719 36.945312 C 98.601562 36.890625 97.53125 36.609375 96.800781 36.050781 C 96.066406 35.492188 95.617188 34.710938 95.332031 33.648438 C 95.050781 32.589844 94.9375 30.800781 94.9375 28.34375 C 94.9375 25.71875 94.828125 23.816406 94.542969 22.644531 C 94.261719 21.472656 93.8125 20.523438 93.078125 19.742188 C 92.347656 19.015625 91.386719 18.457031 90.203125 18.066406 C 89.023438 17.730469 87.386719 17.503906 85.300781 17.503906 L 84.0625 17.503906 L 84.0625 23.035156 C 86.148438 23.035156 87.445312 23.257812 88.007812 23.652344 C 88.570312 24.042969 88.796875 24.992188 88.796875 26.386719 C 88.796875 30.6875 89.078125 33.707031 89.585938 35.4375 C 90.09375 37.167969 91.332031 38.566406 93.191406 39.683594 C 91.78125 40.464844 90.65625 41.582031 89.921875 43.144531 C 89.191406 44.652344 88.796875 47.949219 88.796875 53.035156 C 88.796875 54.261719 88.628906 54.988281 88.289062 55.378906 C 87.949219 55.714844 87.554688 55.992188 87.160156 56.160156 C 86.765625 56.328125 85.753906 56.386719 84.0625 56.386719 L 84.0625 61.914062 L 85.300781 61.914062 C 88.457031 61.914062 90.542969 61.523438 91.671875 60.796875 C 92.796875 60.015625 93.585938 59.179688 94.09375 58.171875 C 94.601562 57.167969 94.882812 54.875 94.882812 51.191406 C 94.882812 48.730469 94.996094 46.945312 95.277344 45.882812 C 95.558594 44.820312 96.011719 43.984375 96.742188 43.425781 C 97.476562 42.867188 98.546875 42.53125 99.953125 42.476562 Z M 29.566406 42.476562 C 30.972656 42.53125 32.042969 42.867188 32.777344 43.425781 C 33.507812 43.984375 33.960938 44.765625 34.242188 45.828125 C 34.523438 46.886719 34.636719 48.675781 34.636719 51.191406 C 34.636719 54.765625 34.917969 57.109375 35.425781 58.171875 C 35.933594 59.234375 36.835938 60.128906 38.019531 60.855469 C 39.203125 61.578125 41.285156 61.914062 44.273438 61.914062 L 45.515625 61.914062 L 45.515625 56.386719 C 43.542969 56.386719 42.300781 56.160156 41.679688 55.714844 C 41.0625 55.269531 40.78125 54.375 40.78125 53.035156 C 40.78125 48.621094 40.496094 45.546875 39.933594 43.816406 C 39.371094 42.085938 38.1875 40.742188 36.441406 39.738281 C 38.355469 38.621094 39.539062 37.167969 40.046875 35.382812 C 40.554688 33.59375 40.78125 30.632812 40.78125 26.445312 C 40.78125 24.992188 41.0625 24.097656 41.625 23.707031 C 42.1875 23.316406 43.484375 23.09375 45.515625 23.09375 L 45.515625 17.5625 L 44.273438 17.5625 C 41.570312 17.5625 39.539062 17.898438 38.1875 18.566406 C 36.835938 19.238281 35.875 20.242188 35.425781 21.582031 C 34.917969 22.925781 34.691406 25.160156 34.691406 28.34375 C 34.691406 30.800781 34.582031 32.53125 34.296875 33.59375 C 34.015625 34.65625 33.566406 35.492188 32.832031 36.050781 C 32.101562 36.609375 31.03125 36.945312 29.621094 37 L 29.621094 42.53125 Z M 29.566406 42.476562 " fill-opacity="1" fill-rule="nonzero"/></g><g clip-path="url(#id2)"><path fill="#f8a8d5" d="M 52.445312 59.179688 L 56.839844 59.179688 C 58.023438 59.179688 59.039062 60.128906 59.039062 61.355469 L 59.039062 18.34375 C 59.039062 17.171875 58.082031 16.164062 56.839844 16.164062 L 52.445312 16.164062 C 51.261719 16.164062 50.246094 17.113281 50.246094 18.34375 L 50.246094 61.355469 C 50.246094 60.183594 51.207031 59.179688 52.445312 59.179688 Z M 52.445312 59.179688 " fill-opacity="1" fill-rule="evenodd"/></g><g clip-path="url(#id3)"><path fill="#f6f6e9" d="M 62.816406 58.621094 L 67.210938 58.621094 C 68.394531 58.621094 69.410156 59.570312 69.410156 60.796875 L 69.410156 28.285156 C 69.410156 27.113281 68.453125 26.109375 67.210938 26.109375 L 62.816406 26.109375 C 61.632812 26.109375 60.617188 27.058594 60.617188 28.285156 L 60.617188 60.796875 C 60.617188 61.972656 61.574219 58.621094 62.816406 58.621094 Z M 62.816406 58.621094 " fill-opacity="1" fill-rule="evenodd"/></g><g clip-path="url(#id4)"><path fill="#f8a8d5" d="M 72.789062 59.179688 L 77.1875 59.179688 C 78.371094 59.179688 79.382812 60.128906 79.382812 61.355469 L 79.382812 18.34375 C 79.382812 17.171875 78.425781 16.164062 77.1875 16.164062 L 72.789062 16.164062 C 71.605469 16.164062 70.59375 17.113281 70.59375 18.34375 L 70.59375 61.355469 C 70.59375 60.183594 71.550781 59.179688 72.789062 59.179688 Z M 72.789062 59.179688 " fill-opacity="1" fill-rule="evenodd"/></g><g fill="#f6f6e9" fill-opacity="1"><g transform="translate(103.529726, 41.747509)"><g><path d="M 2.1875 -20.484375 L 11.078125 -20.484375 C 13.160156 -20.484375 14.816406 -19.972656 16.046875 -18.953125 C 17.285156 -17.941406 17.90625 -16.660156 17.90625 -15.109375 C 17.90625 -12.796875 16.554688 -11.234375 13.859375 -10.421875 C 15.234375 -10.222656 16.328125 -9.644531 17.140625 -8.6875 C 17.960938 -7.738281 18.375 -6.625 18.375 -5.34375 C 18.375 -3.707031 17.773438 -2.40625 16.578125 -1.4375 C 15.390625 -0.476562 13.722656 0 11.578125 0 L 2.1875 0 Z M 7.171875 -16.6875 L 7.171875 -12.25 L 10.4375 -12.25 C 11.15625 -12.25 11.734375 -12.429688 12.171875 -12.796875 C 12.609375 -13.171875 12.828125 -13.722656 12.828125 -14.453125 C 12.828125 -15.179688 12.609375 -15.734375 12.171875 -16.109375 C 11.734375 -16.492188 11.15625 -16.6875 10.4375 -16.6875 Z M 7.171875 -3.796875 L 10.9375 -3.796875 C 11.613281 -3.796875 12.175781 -4 12.625 -4.40625 C 13.070312 -4.8125 13.296875 -5.375 13.296875 -6.09375 C 13.296875 -6.8125 13.082031 -7.382812 12.65625 -7.8125 C 12.226562 -8.238281 11.675781 -8.453125 11 -8.453125 L 7.171875 -8.453125 Z M 7.171875 -3.796875 "/></g></g></g><g fill="#f6f6e9" fill-opacity="1"><g transform="translate(122.459503, 41.747509)"><g><path d="M 2.1875 0 L 2.1875 -21.59375 L 7.171875 -21.59375 L 7.171875 0 Z M 2.1875 0 "/></g></g></g><g fill="#f6f6e9" fill-opacity="1"><g transform="translate(131.092996, 41.747509)"><g><path d="M 13.25 -16.28125 L 18.234375 -16.28125 L 18.234375 0 L 13.25 0 L 13.25 -2.390625 C 12.21875 -0.679688 10.570312 0.171875 8.3125 0.171875 C 6.445312 0.171875 4.9375 -0.445312 3.78125 -1.6875 C 2.625 -2.9375 2.046875 -4.628906 2.046875 -6.765625 L 2.046875 -16.28125 L 7 -16.28125 L 7 -7.4375 C 7 -6.382812 7.273438 -5.570312 7.828125 -5 C 8.390625 -4.425781 9.15625 -4.140625 10.125 -4.140625 C 11.09375 -4.140625 11.851562 -4.425781 12.40625 -5 C 12.96875 -5.570312 13.25 -6.382812 13.25 -7.4375 Z M 13.25 -16.28125 "/></g></g></g><g fill="#f6f6e9" fill-opacity="1"><g transform="translate(150.781138, 41.747509)"><g><path d="M 9.109375 0.203125 C 6.734375 0.203125 4.785156 -0.554688 3.265625 -2.078125 C 1.742188 -3.609375 0.984375 -5.632812 0.984375 -8.15625 C 0.984375 -10.6875 1.738281 -12.703125 3.25 -14.203125 C 4.757812 -15.703125 6.707031 -16.453125 9.09375 -16.453125 C 11.488281 -16.453125 13.472656 -15.710938 15.046875 -14.234375 C 16.628906 -12.753906 17.421875 -10.703125 17.421875 -8.078125 C 17.421875 -7.515625 17.378906 -6.988281 17.296875 -6.5 L 6.09375 -6.5 C 6.195312 -5.78125 6.519531 -5.191406 7.0625 -4.734375 C 7.601562 -4.285156 8.1875 -4.0625 8.8125 -4.0625 C 9.445312 -4.0625 9.921875 -4.125 10.234375 -4.25 C 10.546875 -4.375 10.773438 -4.5 10.921875 -4.625 C 11.066406 -4.75 11.257812 -4.957031 11.5 -5.25 L 16.890625 -5.25 C 16.421875 -3.613281 15.484375 -2.296875 14.078125 -1.296875 C 12.679688 -0.296875 11.023438 0.203125 9.109375 0.203125 Z M 12.21875 -9.625 C 12.144531 -10.382812 11.816406 -11 11.234375 -11.46875 C 10.648438 -11.945312 9.957031 -12.1875 9.15625 -12.1875 C 8.363281 -12.1875 7.691406 -11.945312 7.140625 -11.46875 C 6.597656 -11 6.257812 -10.382812 6.125 -9.625 Z M 12.21875 -9.625 "/></g></g></g><g fill="#f6f6e9" fill-opacity="1"><g transform="translate(168.48586, 41.747509)"><g><path d="M 4.03125 -2.78125 C 2 -4.757812 0.984375 -7.265625 0.984375 -10.296875 C 0.984375 -13.328125 2 -15.828125 4.03125 -17.796875 C 6.070312 -19.773438 8.5625 -20.765625 11.5 -20.765625 C 13.769531 -20.765625 15.789062 -20.160156 17.5625 -18.953125 C 19.332031 -17.753906 20.566406 -16.082031 21.265625 -13.9375 L 15.3125 -13.9375 C 14.53125 -15.4375 13.285156 -16.1875 11.578125 -16.1875 C 9.867188 -16.1875 8.519531 -15.648438 7.53125 -14.578125 C 6.550781 -13.515625 6.0625 -12.085938 6.0625 -10.296875 C 6.0625 -8.503906 6.550781 -7.070312 7.53125 -6 C 8.519531 -4.9375 9.867188 -4.40625 11.578125 -4.40625 C 13.285156 -4.40625 14.53125 -5.15625 15.3125 -6.65625 L 21.265625 -6.65625 C 20.566406 -4.507812 19.332031 -2.832031 17.5625 -1.625 C 15.789062 -0.425781 13.769531 0.171875 11.5 0.171875 C 8.5625 0.171875 6.070312 -0.8125 4.03125 -2.78125 Z M 4.03125 -2.78125 "/></g></g></g><g fill="#f6f6e9" fill-opacity="1"><g transform="translate(190.040748, 41.747509)"><g><path d="M 11.953125 -5.109375 C 12.617188 -5.804688 12.953125 -6.816406 12.953125 -8.140625 C 12.953125 -9.460938 12.609375 -10.46875 11.921875 -11.15625 C 11.242188 -11.84375 10.4375 -12.1875 9.5 -12.1875 C 8.570312 -12.1875 7.769531 -11.84375 7.09375 -11.15625 C 6.425781 -10.46875 6.09375 -9.460938 6.09375 -8.140625 C 6.09375 -6.816406 6.4375 -5.804688 7.125 -5.109375 C 7.820312 -4.410156 8.632812 -4.0625 9.5625 -4.0625 C 10.5 -4.0625 11.296875 -4.410156 11.953125 -5.109375 Z M 3.484375 -2.09375 C 1.835938 -3.632812 1.015625 -5.660156 1.015625 -8.171875 C 1.015625 -10.679688 1.832031 -12.6875 3.46875 -14.1875 C 5.101562 -15.695312 7.125 -16.453125 9.53125 -16.453125 C 11.945312 -16.453125 13.96875 -15.695312 15.59375 -14.1875 C 17.21875 -12.6875 18.03125 -10.679688 18.03125 -8.171875 C 18.03125 -5.660156 17.222656 -3.632812 15.609375 -2.09375 C 13.992188 -0.5625 11.976562 0.203125 9.5625 0.203125 C 7.15625 0.203125 5.128906 -0.5625 3.484375 -2.09375 Z M 3.484375 -2.09375 "/></g></g></g><g fill="#f6f6e9" fill-opacity="1"><g transform="translate(208.357999, 41.747509)"><g><path d="M 12.109375 -5.15625 C 12.828125 -5.863281 13.1875 -6.859375 13.1875 -8.140625 C 13.1875 -9.421875 12.828125 -10.40625 12.109375 -11.09375 C 11.390625 -11.789062 10.5625 -12.140625 9.625 -12.140625 C 8.6875 -12.140625 7.859375 -11.785156 7.140625 -11.078125 C 6.421875 -10.378906 6.0625 -9.390625 6.0625 -8.109375 C 6.0625 -6.828125 6.421875 -5.835938 7.140625 -5.140625 C 7.859375 -4.453125 8.6875 -4.109375 9.625 -4.109375 C 10.5625 -4.109375 11.390625 -4.457031 12.109375 -5.15625 Z M 3.140625 -2.125 C 1.703125 -3.6875 0.984375 -5.679688 0.984375 -8.109375 C 0.984375 -10.535156 1.703125 -12.53125 3.140625 -14.09375 C 4.585938 -15.664062 6.34375 -16.453125 8.40625 -16.453125 C 10.476562 -16.453125 12.070312 -15.679688 13.1875 -14.140625 L 13.1875 -21.59375 L 18.171875 -21.59375 L 18.171875 0 L 13.1875 0 L 13.1875 -2.359375 C 11.976562 -0.648438 10.363281 0.203125 8.34375 0.203125 C 6.320312 0.203125 4.585938 -0.570312 3.140625 -2.125 Z M 3.140625 -2.125 "/></g></g></g><g fill="#f6f6e9" fill-opacity="1"><g transform="translate(227.987808, 41.747509)"><g><path d="M 9.109375 0.203125 C 6.734375 0.203125 4.785156 -0.554688 3.265625 -2.078125 C 1.742188 -3.609375 0.984375 -5.632812 0.984375 -8.15625 C 0.984375 -10.6875 1.738281 -12.703125 3.25 -14.203125 C 4.757812 -15.703125 6.707031 -16.453125 9.09375 -16.453125 C 11.488281 -16.453125 13.472656 -15.710938 15.046875 -14.234375 C 16.628906 -12.753906 17.421875 -10.703125 17.421875 -8.078125 C 17.421875 -7.515625 17.378906 -6.988281 17.296875 -6.5 L 6.09375 -6.5 C 6.195312 -5.78125 6.519531 -5.191406 7.0625 -4.734375 C 7.601562 -4.285156 8.1875 -4.0625 8.8125 -4.0625 C 9.445312 -4.0625 9.921875 -4.125 10.234375 -4.25 C 10.546875 -4.375 10.773438 -4.5 10.921875 -4.625 C 11.066406 -4.75 11.257812 -4.957031 11.5 -5.25 L 16.890625 -5.25 C 16.421875 -3.613281 15.484375 -2.296875 14.078125 -1.296875 C 12.679688 -0.296875 11.023438 0.203125 9.109375 0.203125 Z M 12.21875 -9.625 C 12.144531 -10.382812 11.816406 -11 11.234375 -11.46875 C 10.648438 -11.945312 9.957031 -12.1875 9.15625 -12.1875 C 8.363281 -12.1875 7.691406 -11.945312 7.140625 -11.46875 C 6.597656 -11 6.257812 -10.382812 6.125 -9.625 Z M 12.21875 -9.625 "/></g></g></g><g fill="#f8a8d5" fill-opacity="1"><g transform="translate(134.331476, 57.490794)"><g><path d="M 1.046875 0 L 1.046875 -9.8125 L 3.4375 -9.8125 L 3.4375 0 Z M 1.046875 0 "/></g></g></g><g fill="#f8a8d5" fill-opacity="1"><g transform="translate(143.699626, 57.490794)"><g><path d="M 3.4375 -7.796875 L 3.4375 -6.65625 C 3.925781 -7.46875 4.710938 -7.875 5.796875 -7.875 C 6.691406 -7.875 7.414062 -7.578125 7.96875 -6.984375 C 8.519531 -6.390625 8.796875 -5.578125 8.796875 -4.546875 L 8.796875 0 L 6.421875 0 L 6.421875 -4.234375 C 6.421875 -4.734375 6.285156 -5.117188 6.015625 -5.390625 C 5.753906 -5.671875 5.390625 -5.8125 4.921875 -5.8125 C 4.460938 -5.8125 4.097656 -5.671875 3.828125 -5.390625 C 3.566406 -5.117188 3.4375 -4.734375 3.4375 -4.234375 L 3.4375 0 L 1.046875 0 L 1.046875 -7.796875 Z M 3.4375 -7.796875 "/></g></g></g><g fill="#f8a8d5" fill-opacity="1"><g transform="translate(158.357464, 57.490794)"><g><path d="M 4.453125 -7.796875 L 4.453125 -5.8125 L 3.46875 -5.8125 L 3.46875 0 L 1.078125 0 L 1.078125 -5.8125 L 0.34375 -5.8125 L 0.34375 -7.796875 L 1.078125 -7.796875 L 1.078125 -8.09375 C 1.078125 -9.070312 1.335938 -9.789062 1.859375 -10.25 C 2.390625 -10.707031 3.21875 -10.9375 4.34375 -10.9375 L 4.34375 -8.90625 C 4.03125 -8.90625 3.804688 -8.84375 3.671875 -8.71875 C 3.535156 -8.601562 3.46875 -8.394531 3.46875 -8.09375 L 3.46875 -7.796875 Z M 4.453125 -7.796875 "/></g></g></g><g fill="#f8a8d5" fill-opacity="1"><g transform="translate(167.934961, 57.490794)"><g><path d="M 3.21875 -8.671875 C 2.957031 -8.398438 2.628906 -8.265625 2.234375 -8.265625 C 1.835938 -8.265625 1.503906 -8.398438 1.234375 -8.671875 C 0.972656 -8.941406 0.84375 -9.273438 0.84375 -9.671875 C 0.84375 -10.066406 0.972656 -10.398438 1.234375 -10.671875 C 1.503906 -10.941406 1.835938 -11.078125 2.234375 -11.078125 C 2.628906 -11.078125 2.957031 -10.941406 3.21875 -10.671875 C 3.488281 -10.398438 3.625 -10.066406 3.625 -9.671875 C 3.625 -9.273438 3.488281 -8.941406 3.21875 -8.671875 Z M 1.046875 0 L 1.046875 -7.796875 L 3.4375 -7.796875 L 3.4375 0 Z M 1.046875 0 "/></g></g></g><g fill="#f8a8d5" fill-opacity="1"><g transform="translate(177.30311, 57.490794)"><g><path d="M 3.4375 -7.796875 L 3.4375 -6.65625 C 3.925781 -7.46875 4.710938 -7.875 5.796875 -7.875 C 6.691406 -7.875 7.414062 -7.578125 7.96875 -6.984375 C 8.519531 -6.390625 8.796875 -5.578125 8.796875 -4.546875 L 8.796875 0 L 6.421875 0 L 6.421875 -4.234375 C 6.421875 -4.734375 6.285156 -5.117188 6.015625 -5.390625 C 5.753906 -5.671875 5.390625 -5.8125 4.921875 -5.8125 C 4.460938 -5.8125 4.097656 -5.671875 3.828125 -5.390625 C 3.566406 -5.117188 3.4375 -4.734375 3.4375 -4.234375 L 3.4375 0 L 1.046875 0 L 1.046875 -7.796875 Z M 3.4375 -7.796875 "/></g></g></g><g fill="#f8a8d5" fill-opacity="1"><g transform="translate(191.960948, 57.490794)"><g><path d="M 3.21875 -8.671875 C 2.957031 -8.398438 2.628906 -8.265625 2.234375 -8.265625 C 1.835938 -8.265625 1.503906 -8.398438 1.234375 -8.671875 C 0.972656 -8.941406 0.84375 -9.273438 0.84375 -9.671875 C 0.84375 -10.066406 0.972656 -10.398438 1.234375 -10.671875 C 1.503906 -10.941406 1.835938 -11.078125 2.234375 -11.078125 C 2.628906 -11.078125 2.957031 -10.941406 3.21875 -10.671875 C 3.488281 -10.398438 3.625 -10.066406 3.625 -9.671875 C 3.625 -9.273438 3.488281 -8.941406 3.21875 -8.671875 Z M 1.046875 0 L 1.046875 -7.796875 L 3.4375 -7.796875 L 3.4375 0 Z M 1.046875 0 "/></g></g></g><g fill="#f8a8d5" fill-opacity="1"><g transform="translate(201.329098, 57.490794)"><g><path d="M 4.359375 -2.03125 L 5.203125 -2.03125 L 5.203125 0 L 4 0 C 3.125 0 2.445312 -0.191406 1.96875 -0.578125 C 1.488281 -0.960938 1.25 -1.625 1.25 -2.5625 L 1.25 -5.8125 L 0.515625 -5.8125 L 0.515625 -7.796875 L 1.25 -7.796875 L 1.25 -9.6875 L 3.625 -9.6875 L 3.625 -7.796875 L 5.203125 -7.796875 L 5.203125 -5.8125 L 3.625 -5.8125 L 3.625 -2.5625 C 3.625 -2.207031 3.867188 -2.03125 4.359375 -2.03125 Z M 4.359375 -2.03125 "/></g></g></g><g fill="#f8a8d5" fill-opacity="1"><g transform="translate(212.009198, 57.490794)"><g><path d="M 3.09375 -0.15625 L 0.0625 -7.796875 L 2.765625 -7.796875 L 4.5 -2.703125 L 6.390625 -7.796875 L 8.890625 -7.796875 L 3.921875 3.71875 L 1.421875 3.71875 Z M 3.09375 -0.15625 "/></g></g></g></svg>