<svg xmlns="http://www.w3.org/2000/svg" viewBox="0 0 500 500"><g id="freepik--Floor--inject-3"><ellipse id="freepik--floor--inject-3" cx="249.81" cy="337.43" rx="243.17" ry="140.39" style="fill:#f0f0f0"></ellipse></g><g id="freepik--Shadows--inject-3"><path id="freepik--Shadow--inject-3" d="M195.29,432.74l43.48-25.09a1.32,1.32,0,0,0,0-2.5L211.08,389a4.73,4.73,0,0,0-4.33,0l-43.49,25.09a1.32,1.32,0,0,0,0,2.5L191,432.74A4.79,4.79,0,0,0,195.29,432.74Z" style="fill:#e0e0e0"></path><path id="freepik--shadow--inject-3" d="M256.45,397.57l43.48-25.1a1.32,1.32,0,0,0,0-2.5l-27.69-16.11a4.79,4.79,0,0,0-4.33,0L224.42,379a1.32,1.32,0,0,0,0,2.5l27.7,16.12A4.79,4.79,0,0,0,256.45,397.57Z" style="fill:#e0e0e0"></path><path id="freepik--shadow--inject-3" d="M317.61,362.39l43.48-25.09a1.32,1.32,0,0,0,0-2.5L333.4,318.68a4.79,4.79,0,0,0-4.33,0l-43.49,25.09a1.32,1.32,0,0,0,0,2.5l27.7,16.12A4.79,4.79,0,0,0,317.61,362.39Z" style="fill:#e0e0e0"></path><path id="freepik--shadow--inject-3" d="M448,350.27c-17.66,9.66-46.28,9.66-63.93,0s-17.66-25.32,0-35,46.27-9.66,63.93,0S465.63,340.61,448,350.27Z" style="fill:#e0e0e0"></path><polygon id="freepik--shadow--inject-3" points="132.21 409.82 55.03 365.26 302.82 222.2 380 266.76 132.21 409.82" style="fill:#e0e0e0"></polygon></g><g id="freepik--Clouds--inject-3"><g id="freepik--clouds--inject-3"><path d="M122.23,120.58l7.49-4.33a6.67,6.67,0,0,1-.06-.92v-2.17a13.38,13.38,0,0,1,6.05-10.48,4.76,4.76,0,0,1,3.61-.7c.55-5.49,4.36-11.69,9-14.36,5-2.89,9.06-.55,9.06,5.22v3.25a15.77,15.77,0,0,1-.77,4.65l6.23-3.59c1.85-1.08,3.35-.21,3.35,1.93a7.42,7.42,0,0,1-3.35,5.82l-40.59,23.43c-1.85,1.07-3.36.21-3.36-1.94A7.43,7.43,0,0,1,122.23,120.58Z" style="fill:#ebebeb"></path><path d="M114,78.18l-4.14,1.59v-9.1c0-7.21-5.75-8.94-12-5.34h0c-6.25,3.61-11.31,12.39-11.31,19.6v1.32a6.07,6.07,0,0,0-5.25.81h0c-4.5,2.6-8.14,8.91-8.14,14.1v.6l-5.76,3.33a11.84,11.84,0,0,0-5.36,9.28c0,3.42,2.4,4.81,5.36,3.1L114,90.57a11.86,11.86,0,0,0,5.36-9.29C119.37,77.86,117,76.47,114,78.18Z" style="fill:#ebebeb"></path></g></g><g id="freepik--Plant--inject-3"><g id="freepik--Plants--inject-3"><path d="M438.07,303s-.79-12.24,3.5-22.63,11.44-17.67,19-19.66,15,3.95,7.68,10.26-21,13.86-24.41,33.14Z" style="fill:#EBA5BE"></path><path d="M438.07,303s-.79-12.24,3.5-22.63,11.44-17.67,19-19.66,15,3.95,7.68,10.26-21,13.86-24.41,33.14Z" style="opacity:0.30000000000000004"></path><path d="M439.9,297.81h-.08a.4.4,0,0,1-.29-.48c4.83-20.17,18.31-30.33,24.76-32.89a.4.4,0,0,1,.29.74c-6.32,2.5-19.53,12.48-24.28,32.34A.41.41,0,0,1,439.9,297.81Z" style="fill:#fff"></path><path d="M471.15,293.72c-.35,1.48-1.71,2.48-3,3.31s-2.68,1.71-3.18,3.15c-1,2.9,2.17,6.1,1,9a4.81,4.81,0,0,1-2.84,2.47c-1,.39-2.06.59-3.09.88-.51.08-1,.14-1.52.17a6.88,6.88,0,0,0-4.24,1.28c-1.85,1.57-2,4.31-2.86,6.58a10.06,10.06,0,0,1-6.17,5.73c-2.29.76-5.93.91-6.74,0-.61-.7.31-3.36.17-4.28a39.09,39.09,0,0,1-.45-7.17,13.19,13.19,0,0,0-.16-3.26c-.23-1.2-.47-2.41-.69-3.61s-.74-2.27-.52-3.68a13.82,13.82,0,0,1,1.38-3.81q.89-1.79,1.8-3.57a19.08,19.08,0,0,1,2.49-4,10.13,10.13,0,0,1,7.22-3.36c2.26-.05,4.64.77,6.88.24s4.22-1.52,6.49-1.79a7.94,7.94,0,0,1,6.68,2A4.23,4.23,0,0,1,471.15,293.72Z" style="fill:#EBA5BE"></path><g style="opacity:0.15"><path d="M471.15,293.72c-.35,1.48-1.71,2.48-3,3.31s-2.68,1.71-3.18,3.15c-1,2.9,2.17,6.1,1,9a4.81,4.81,0,0,1-2.84,2.47c-1,.39-2.06.59-3.09.88-.51.08-1,.14-1.52.17a6.88,6.88,0,0,0-4.24,1.28c-1.85,1.57-2,4.31-2.86,6.58a10.06,10.06,0,0,1-6.17,5.73c-2.29.76-5.93.91-6.74,0-.61-.7.31-3.36.17-4.28a39.09,39.09,0,0,1-.45-7.17,13.19,13.19,0,0,0-.16-3.26c-.23-1.2-.47-2.41-.69-3.61s-.74-2.27-.52-3.68a13.82,13.82,0,0,1,1.38-3.81q.89-1.79,1.8-3.57a19.08,19.08,0,0,1,2.49-4,10.13,10.13,0,0,1,7.22-3.36c2.26-.05,4.64.77,6.88.24s4.22-1.52,6.49-1.79a7.94,7.94,0,0,1,6.68,2A4.23,4.23,0,0,1,471.15,293.72Z"></path></g><path d="M439.38,320h0a.34.34,0,0,1-.32-.36c1.55-21.53,22.56-28.61,27.68-29.21a.34.34,0,0,1,.08.68c-5,.59-25.56,7.52-27.08,28.58A.35.35,0,0,1,439.38,320Z" style="fill:#fff"></path><path d="M461.37,305.06a.33.33,0,0,1-.19-.06,18.27,18.27,0,0,0-15.48-1.34.35.35,0,0,1-.44-.21.33.33,0,0,1,.21-.43,18.92,18.92,0,0,1,16.09,1.41.34.34,0,0,1,.09.48A.35.35,0,0,1,461.37,305.06Z" style="fill:#fff"></path></g></g><g id="freepik--Window--inject-3"><g id="freepik--window--inject-3"><path d="M371.87,48,129.62,187.87V401.46a3,3,0,0,0,4.45,2.58l4.15-2.39L367.53,269.24a9.57,9.57,0,0,0,4.34-7.51Z" style="fill:#455a64;opacity:0.9"></path><polygon points="366.35 44.81 124.09 184.68 129.62 187.87 371.87 47.99 366.35 44.81" style="fill:#455a64;opacity:0.8"></polygon><path d="M131.18,404.08a3,3,0,0,1-1.56-2.62V187.87l-5.53-3.19V397.32a4.44,4.44,0,0,0,0,.63,4.59,4.59,0,0,0,2.27,3.36L131,404l.23.12Z" style="fill:#263238;opacity:0.85"></path><path d="M124.09,180V168.42a4.82,4.82,0,0,1,2.15-3.77l238-137.35a4.76,4.76,0,0,1,4.33,0l1.18.69a4.76,4.76,0,0,1,2.17,3.75V43.32L129.62,183.18Z" style="fill:#EBA5BE"></path><path d="M124.09,180V168.42a4.82,4.82,0,0,1,2.15-3.77l238-137.35a4.76,4.76,0,0,1,4.33,0l1.18.69a4.76,4.76,0,0,1,2.17,3.75V43.32L129.62,183.18Z" style="fill:#fff;opacity:0.4"></path><path d="M129.62,171.61a4.83,4.83,0,0,1,2.16-3.76L369.71,30.49c1.19-.7,2.16-.15,2.16,1.24V43.32L129.62,183.18Z" style="fill:#EBA5BE"></path><path d="M130.25,169.47a4.47,4.47,0,0,0-.63,2.14v11.57L124.09,180V168.41a4.43,4.43,0,0,1,.63-2.13Z" style="fill:#EBA5BE"></path><path d="M130.25,169.47a4.47,4.47,0,0,0-.63,2.14v11.57L124.09,180V168.41a4.43,4.43,0,0,1,.63-2.13Z" style="opacity:0.2"></path><path d="M361.71,42.79c0,1.3.91,1.82,2,1.17a4.47,4.47,0,0,0,2-3.51c0-1.3-.91-1.82-2-1.18A4.49,4.49,0,0,0,361.71,42.79Z" style="fill:#fafafa"></path><path d="M353.59,47.48c0,1.3.91,1.82,2,1.17a4.47,4.47,0,0,0,2-3.51c0-1.3-.91-1.82-2-1.18A4.51,4.51,0,0,0,353.59,47.48Z" style="fill:#fafafa"></path><path d="M345.47,52.17c0,1.3.91,1.82,2,1.18a4.51,4.51,0,0,0,2-3.52c0-1.3-.91-1.82-2-1.18A4.51,4.51,0,0,0,345.47,52.17Z" style="fill:#fafafa"></path><path d="M354.54,70.39,328.27,85.55a2.4,2.4,0,0,0-1.08,1.88v3.36c0,.69.48,1,1.08.63l26.27-15.17a2.4,2.4,0,0,0,1.08-1.88V71C355.62,70.32,355.14,70,354.54,70.39Z" style="fill:#fafafa"></path><path d="M330.48,88.18a.1.1,0,0,0,0-.08.13.13,0,0,0-.08,0l-.16,0-.26.06a.43.43,0,0,1-.25,0,.26.26,0,0,1-.16-.09.47.47,0,0,1-.08-.19,1.19,1.19,0,0,1,0-.28,1,1,0,0,1,.05-.34,1.48,1.48,0,0,1,.13-.35,2.27,2.27,0,0,1,.22-.32,1.42,1.42,0,0,1,.3-.25,1,1,0,0,1,.3-.11.42.42,0,0,1,.23,0,.27.27,0,0,1,.14.14.37.37,0,0,1,.06.21.27.27,0,0,1,0,.12.13.13,0,0,1-.06.08l-.27.15s-.06,0-.07,0l-.06,0h-.08a.35.35,0,0,0-.16.06.65.65,0,0,0-.18.15.32.32,0,0,0-.08.21.2.2,0,0,0,0,.09.08.08,0,0,0,.07,0l.15,0,.25-.06a.41.41,0,0,1,.43.07.69.69,0,0,1,.12.46,1,1,0,0,1-.05.33,1.38,1.38,0,0,1-.15.36,1.27,1.27,0,0,1-.24.33,1.11,1.11,0,0,1-.32.25.85.85,0,0,1-.32.12.42.42,0,0,1-.23,0,.36.36,0,0,1-.15-.15.46.46,0,0,1-.06-.23.27.27,0,0,1,0-.12.19.19,0,0,1,.07-.08l.26-.15a.08.08,0,0,1,.08,0l.05,0a.17.17,0,0,0,.1,0s.09,0,.17-.06l.11-.07.1-.09.08-.11A.27.27,0,0,0,330.48,88.18Z" style="fill:#e0e0e0"></path><path d="M331.37,87.08a2.95,2.95,0,0,1,.23-1.14,2,2,0,0,1,.26-.46,1.26,1.26,0,0,1,.35-.31.57.57,0,0,1,.35-.1.5.5,0,0,1,.27.14.85.85,0,0,1,.17.33,2.25,2.25,0,0,1,.06.48v.24a.27.27,0,0,1,0,.12.27.27,0,0,1-.07.08l-1.14.66a.5.5,0,0,0,0,.19.2.2,0,0,0,.09.11.16.16,0,0,0,.12,0,.44.44,0,0,0,.15,0,1.41,1.41,0,0,0,.18-.14.72.72,0,0,0,.11-.15l.07-.1s0,0,.06,0l.28-.16a.06.06,0,0,1,.06,0,.12.12,0,0,1,0,.09.66.66,0,0,1-.06.22,1.25,1.25,0,0,1-.15.31,1.5,1.5,0,0,1-.58.61.63.63,0,0,1-.35.1.4.4,0,0,1-.26-.14.93.93,0,0,1-.17-.36A2.12,2.12,0,0,1,331.37,87.08Zm.84-1.28A.8.8,0,0,0,332,86a.81.81,0,0,0-.12.18,1.59,1.59,0,0,0-.07.2.68.68,0,0,0,0,.19l.77-.45a.77.77,0,0,0,0-.15.4.4,0,0,0-.07-.13.16.16,0,0,0-.11-.05A.42.42,0,0,0,332.21,85.8Z" style="fill:#e0e0e0"></path><path d="M333.6,85.1a1.77,1.77,0,0,1,.06-.28l.14-.32a2.26,2.26,0,0,1,.23-.31,1.42,1.42,0,0,1,.3-.25,1,1,0,0,1,.32-.11.33.33,0,0,1,.24.07.51.51,0,0,1,.16.26,1.72,1.72,0,0,1,.05.44v1.56a.52.52,0,0,1,0,.11s0,.07-.07.08l-.26.15s-.05,0-.06,0a.12.12,0,0,1,0-.09v-.17a1.8,1.8,0,0,1-.21.38,1.13,1.13,0,0,1-.34.31.85.85,0,0,1-.27.09.29.29,0,0,1-.19-.06.38.38,0,0,1-.13-.19,1.3,1.3,0,0,1,0-.31,1.35,1.35,0,0,1,.17-.66,1.67,1.67,0,0,1,.45-.54l.56-.47c0-.15,0-.23-.09-.26a.29.29,0,0,0-.24,0,.47.47,0,0,0-.13.11,1,1,0,0,0-.09.15l-.06.1L334,85l-.32.19s-.05,0-.06,0S333.6,85.13,333.6,85.1Zm.57,1.15a.68.68,0,0,0,.21-.17,1.07,1.07,0,0,0,.15-.22.82.82,0,0,0,.1-.24,1.05,1.05,0,0,0,0-.24v0l-.47.4a.8.8,0,0,0-.2.22.46.46,0,0,0-.06.23c0,.07,0,.11.07.12A.24.24,0,0,0,334.17,86.25Z" style="fill:#e0e0e0"></path><path d="M336.57,83.34a.74.74,0,0,0-.3.31,1.23,1.23,0,0,0-.09.51v1.38a.26.26,0,0,1,0,.11s0,.07-.07.08l-.26.15a0,0,0,0,1-.06,0,.12.12,0,0,1,0-.09V83.33a.2.2,0,0,1,0-.11.18.18,0,0,1,.06-.08l.26-.15s.05,0,.07,0a.11.11,0,0,1,0,.08v.13a1.5,1.5,0,0,1,.19-.31,1,1,0,0,1,.26-.22l.16-.09s0,0,.06,0a.12.12,0,0,1,0,.09V83a.26.26,0,0,1,0,.11.18.18,0,0,1-.06.08Z" style="fill:#e0e0e0"></path><path d="M337.67,83.26a1.09,1.09,0,0,0,0,.19,1,1,0,0,0,0,.18.79.79,0,0,0,.05.25.22.22,0,0,0,.09.13.2.2,0,0,0,.13,0,.48.48,0,0,0,.14,0l.14-.11a.52.52,0,0,0,.1-.11l.07-.13.06-.15a.61.61,0,0,1,.05-.12.2.2,0,0,1,.06-.09l.26-.15a.06.06,0,0,1,.07,0s0,0,0,.08a.93.93,0,0,1-.05.3,1.93,1.93,0,0,1-.15.39,1.62,1.62,0,0,1-.25.39,1.44,1.44,0,0,1-.38.32.55.55,0,0,1-.34.1.41.41,0,0,1-.26-.11.6.6,0,0,1-.18-.29,1.66,1.66,0,0,1-.08-.41v-.43a3,3,0,0,1,.08-.51,2.84,2.84,0,0,1,.17-.49,2.42,2.42,0,0,1,.27-.41,1.07,1.07,0,0,1,.34-.3.79.79,0,0,1,.38-.12.4.4,0,0,1,.25.1.48.48,0,0,1,.15.22.52.52,0,0,1,.05.24.15.15,0,0,1,0,.11s0,.07-.07.08l-.26.15a0,0,0,0,1-.06,0l-.05-.06a.7.7,0,0,0-.06-.09l-.07,0h-.1a.37.37,0,0,0-.14.07.36.36,0,0,0-.14.11.83.83,0,0,0-.13.18.85.85,0,0,0-.09.24A1.44,1.44,0,0,0,337.67,83.26Z" style="fill:#e0e0e0"></path><path d="M341.13,82.67a.5.5,0,0,1,0,.12.19.19,0,0,1-.07.08l-.26.15a.06.06,0,0,1-.06,0,.12.12,0,0,1,0-.09V81.59a.75.75,0,0,0-.1-.45c-.06-.09-.16-.1-.29,0a.73.73,0,0,0-.29.35,1.48,1.48,0,0,0-.1.57v1.34a.27.27,0,0,1,0,.12.19.19,0,0,1-.07.08l-.26.15a0,0,0,0,1-.06,0s0,0,0-.08V80.18a.27.27,0,0,1,0-.12.18.18,0,0,1,.06-.08l.26-.15a.06.06,0,0,1,.07,0,.12.12,0,0,1,0,.09V81a1.2,1.2,0,0,1,.21-.34.86.86,0,0,1,.28-.26.61.61,0,0,1,.35-.1.33.33,0,0,1,.23.14,1.07,1.07,0,0,1,.12.32,3.19,3.19,0,0,1,0,.45Z" style="fill:#e0e0e0"></path><path d="M361.67,72.18l-1-.92a4.21,4.21,0,0,0,.31-1.52,1.77,1.77,0,0,0-.72-1.63,1.09,1.09,0,0,0-1.15,0,3.79,3.79,0,0,0-1.5,3.09,1.82,1.82,0,0,0,.71,1.64,1,1,0,0,0,.51.13,1.27,1.27,0,0,0,.65-.19,2.5,2.5,0,0,0,.85-.86l.78.75a.35.35,0,0,0,.26.1.43.43,0,0,0,.27-.11A.38.38,0,0,0,361.67,72.18Zm-2.52,0a.4.4,0,0,1-.41.06c-.16-.09-.34-.41-.34-1a3.09,3.09,0,0,1,1.12-2.44.54.54,0,0,1,.27-.09.23.23,0,0,1,.14,0c.15.09.34.4.34,1A3.12,3.12,0,0,1,359.15,72.18Z" style="fill:#fafafa"></path><path d="M144.4,215.67a.52.52,0,0,1-.25-.07.5.5,0,0,1-.25-.43V187a.48.48,0,0,1,.25-.43l40.62-23.45a.5.5,0,0,1,.5,0,.5.5,0,0,1,.25.43v28.14a.52.52,0,0,1-.25.44L144.65,215.6A.59.59,0,0,1,144.4,215.67Zm.5-28.36v27l39.62-22.88v-27Z" style="fill:#EBA5BE"></path><path d="M198.29,160.6l22.2-12.82c.6-.35,1.08-.07,1.08.62v2.19a2.4,2.4,0,0,1-1.08,1.88l-22.2,12.82c-.6.35-1.09.07-1.09-.62v-2.19A2.4,2.4,0,0,1,198.29,160.6Z" style="fill:#EBA5BE"></path><path d="M230.78,141.84,253,129c.6-.35,1.08-.07,1.08.62v2.19a2.4,2.4,0,0,1-1.08,1.88l-22.21,12.82c-.6.34-1.08.06-1.08-.63v-2.19A2.37,2.37,0,0,1,230.78,141.84Z" style="fill:#EBA5BE"></path><path d="M263.28,123.08l22.2-12.82c.6-.35,1.09-.07,1.09.62v2.19a2.41,2.41,0,0,1-1.09,1.88l-22.2,12.82c-.6.34-1.08.06-1.08-.63V125A2.38,2.38,0,0,1,263.28,123.08Z" style="fill:#EBA5BE"></path><path d="M225.64,152.22a.38.38,0,0,1-.38-.38v-9.38a.38.38,0,0,1,.75,0v9.38A.38.38,0,0,1,225.64,152.22Z" style="fill:#EBA5BE"></path><path d="M258.13,133.46a.38.38,0,0,1-.37-.38V123.7a.38.38,0,0,1,.75,0v9.38A.38.38,0,0,1,258.13,133.46Z" style="fill:#EBA5BE"></path><path d="M197.2,185.18a.59.59,0,0,1-.25-.07.5.5,0,0,1-.25-.43V175.3a.52.52,0,0,1,.25-.44L359.43,81.05a.55.55,0,0,1,.5,0,.5.5,0,0,1,.25.44v9.38a.48.48,0,0,1-.25.43L197.45,185.11A.52.52,0,0,1,197.2,185.18Zm.5-9.6v8.23L359.18,90.58V82.35Z" style="fill:#EBA5BE"></path><path d="M154.55,226.83a2.25,2.25,0,0,0-.86,1.83c0,.73.38,1.11.86.83a2.28,2.28,0,0,0,.87-1.83C155.42,226.92,155,226.55,154.55,226.83Z" style="fill:#EBA5BE"></path><path d="M156.48,224.44l-.68.39v-.35c0-.23-.12-.35-.27-.26l-1.95,1.12a.71.71,0,0,0-.27.57v.36l-.69.4a1.45,1.45,0,0,0-.56,1.18v3.49c0,.48.25.72.56.54l3.86-2.23a1.48,1.48,0,0,0,.56-1.18V225C157,224.5,156.79,224.26,156.48,224.44Zm-1.93,5.79c-.74.43-1.35-.15-1.35-1.29a3.54,3.54,0,0,1,1.35-2.85c.74-.43,1.35.15,1.35,1.29A3.57,3.57,0,0,1,154.55,230.23Z" style="fill:#EBA5BE"></path><path d="M144.4,243.56a.2.2,0,0,1-.13,0,.22.22,0,0,1-.12-.21V224.55a.24.24,0,0,1,.12-.22l20.31-11.73a.28.28,0,0,1,.25,0,.26.26,0,0,1,.13.22v18.76a.26.26,0,0,1-.13.22l-20.31,11.72A.19.19,0,0,1,144.4,243.56Zm.25-18.87v18.18l19.81-11.43V213.25Z" style="fill:#EBA5BE"></path><path d="M144.4,243.56a.33.33,0,0,1-.14,0,.25.25,0,0,1-.07-.35L151,233a.25.25,0,0,1,.35-.07.24.24,0,0,1,.06.34l-6.77,10.17A.23.23,0,0,1,144.4,243.56Z" style="fill:#EBA5BE"></path><path d="M157.93,223.23a.27.27,0,0,1-.14,0,.25.25,0,0,1-.06-.35l6.77-10.16a.26.26,0,0,1,.35-.07.25.25,0,0,1,.06.35l-6.77,10.16A.26.26,0,0,1,157.93,223.23Z" style="fill:#EBA5BE"></path><path d="M164.71,231.83h-.08l-6.37-2.21a.25.25,0,1,1,.16-.47l6.37,2.21a.25.25,0,0,1-.08.48Z" style="fill:#EBA5BE"></path><path d="M150.83,227h-.08l-6.44-2.23a.25.25,0,0,1-.15-.32.26.26,0,0,1,.32-.15l6.43,2.23a.25.25,0,0,1-.08.48Z" style="fill:#EBA5BE"></path><path d="M169.2,214.92l11.32-6.54c.24-.14.43,0,.43.25V210a.91.91,0,0,1-.43.75l-11.32,6.54c-.24.14-.43,0-.43-.25v-1.34A.93.93,0,0,1,169.2,214.92Z" style="fill:#EBA5BE"></path><path d="M169.2,219.61l19.45-11.23c.23-.14.43,0,.43.25V210a1,1,0,0,1-.43.75L169.2,222c-.24.14-.43,0-.43-.25v-1.34A.93.93,0,0,1,169.2,219.61Z" style="fill:#fafafa"></path><path d="M169.2,224.3l19.45-11.23c.23-.14.43,0,.43.25v1.35a1,1,0,0,1-.43.75L169.2,226.64c-.24.14-.43,0-.43-.25v-1.34A.93.93,0,0,1,169.2,224.3Z" style="fill:#fafafa"></path><path d="M349.53,164.44a3.21,3.21,0,0,0-1.21,2.57c0,1,.54,1.55,1.21,1.16a3.19,3.19,0,0,0,1.21-2.56C350.74,164.58,350.2,164.05,349.53,164.44Z" style="fill:#EBA5BE"></path><path d="M352.23,161.09l-1,.56v-.5c0-.32-.17-.48-.37-.36l-2.74,1.57a1,1,0,0,0-.37.8v.5l-1,.56a2,2,0,0,0-.79,1.65v4.89c0,.67.35,1,.79.76l5.4-3.13a2.06,2.06,0,0,0,.78-1.65v-4.89C353,161.18,352.66,160.85,352.23,161.09Zm-2.7,8.12c-1,.6-1.89-.22-1.89-1.82a5,5,0,0,1,1.89-4c1-.6,1.88.22,1.88,1.82A5,5,0,0,1,349.53,169.21Z" style="fill:#EBA5BE"></path><path d="M335.31,187.86a.33.33,0,0,1-.17,0,.37.37,0,0,1-.18-.31V161.25a.37.37,0,0,1,.18-.31l28.43-16.41a.36.36,0,0,1,.35,0,.35.35,0,0,1,.18.3V171.1a.35.35,0,0,1-.18.3l-28.43,16.42A.39.39,0,0,1,335.31,187.86Zm.35-26.41v25.46l27.74-16V145.44Z" style="fill:#EBA5BE"></path><path d="M335.31,187.86a.45.45,0,0,1-.19-.05.36.36,0,0,1-.1-.49l9.48-14.23a.35.35,0,1,1,.58.39l-9.48,14.23A.33.33,0,0,1,335.31,187.86Z" style="fill:#EBA5BE"></path><path d="M354.26,159.41a.35.35,0,0,1-.19-.06.36.36,0,0,1-.1-.49l9.49-14.22a.34.34,0,0,1,.48-.1.36.36,0,0,1,.1.49l-9.48,14.22A.37.37,0,0,1,354.26,159.41Z" style="fill:#EBA5BE"></path><path d="M363.75,171.45l-.12,0-8.91-3.09a.35.35,0,1,1,.23-.66l8.91,3.09a.35.35,0,0,1-.11.68Z" style="fill:#EBA5BE"></path><path d="M344.32,164.72l-.11,0-9-3.12a.35.35,0,1,1,.23-.66l9,3.12a.34.34,0,0,1,.22.44A.35.35,0,0,1,344.32,164.72Z" style="fill:#EBA5BE"></path><path d="M335.75,191.46l11.32-6.53c.23-.14.43,0,.43.25v1.34a1,1,0,0,1-.43.75l-11.32,6.54a.27.27,0,0,1-.44-.25v-1.35A1,1,0,0,1,335.75,191.46Z" style="fill:#EBA5BE"></path><path d="M335.75,196.15l27.56-16c.24-.14.44,0,.44.25v1.34a.94.94,0,0,1-.44.75l-27.56,16a.27.27,0,0,1-.44-.25V196.9A1,1,0,0,1,335.75,196.15Z" style="fill:#fafafa"></path><path d="M335.75,200.84l27.56-16c.24-.14.44,0,.44.25v1.34a.94.94,0,0,1-.44.75l-27.56,16c-.24.14-.44,0-.44-.25v-1.35A1,1,0,0,1,335.75,200.84Z" style="fill:#fafafa"></path><path d="M154.55,255a2.27,2.27,0,0,0-.86,1.83c0,.74.38,1.11.86.83a2.26,2.26,0,0,0,.87-1.83C155.42,255.07,155,254.69,154.55,255Z" style="fill:#EBA5BE"></path><path d="M156.48,252.58l-.68.4v-.36c0-.23-.12-.35-.27-.26l-1.95,1.13a.7.7,0,0,0-.27.57v.35l-.69.4a1.48,1.48,0,0,0-.56,1.18v3.5c0,.47.25.71.56.53l3.86-2.23a1.45,1.45,0,0,0,.56-1.18v-3.49C157,252.64,156.79,252.4,156.48,252.58Zm-1.93,5.8c-.74.42-1.35-.16-1.35-1.3a3.57,3.57,0,0,1,1.35-2.85c.74-.43,1.35.15,1.35,1.29A3.58,3.58,0,0,1,154.55,258.38Z" style="fill:#EBA5BE"></path><path d="M144.4,271.7a.28.28,0,0,1-.13,0,.25.25,0,0,1-.12-.22V252.69a.25.25,0,0,1,.12-.22l20.31-11.72a.23.23,0,0,1,.25,0,.23.23,0,0,1,.13.21v18.76a.25.25,0,0,1-.13.22l-20.31,11.73Zm.25-18.87V271l19.81-11.44V241.4Z" style="fill:#EBA5BE"></path><path d="M144.4,271.7a.23.23,0,0,1-.14,0,.25.25,0,0,1-.07-.35L151,261.15a.25.25,0,0,1,.35-.07.25.25,0,0,1,.06.35l-6.77,10.16A.23.23,0,0,1,144.4,271.7Z" style="fill:#EBA5BE"></path><path d="M157.93,251.37a.27.27,0,0,1-.14,0,.25.25,0,0,1-.06-.35l6.77-10.16a.26.26,0,0,1,.35-.07.25.25,0,0,1,.06.35l-6.77,10.16A.26.26,0,0,1,157.93,251.37Z" style="fill:#EBA5BE"></path><path d="M164.71,260h-.08l-6.37-2.21a.25.25,0,0,1-.16-.31.26.26,0,0,1,.32-.16l6.37,2.21a.24.24,0,0,1,.15.32A.24.24,0,0,1,164.71,260Z" style="fill:#EBA5BE"></path><path d="M150.83,255.17l-.08,0-6.44-2.23a.24.24,0,0,1-.15-.31.26.26,0,0,1,.32-.16l6.43,2.23a.26.26,0,0,1,.16.32A.27.27,0,0,1,150.83,255.17Z" style="fill:#EBA5BE"></path><path d="M169.2,243.06l11.32-6.54c.24-.14.43,0,.43.25v1.35a.94.94,0,0,1-.43.75L169.2,245.4c-.24.14-.43,0-.43-.25v-1.34A1,1,0,0,1,169.2,243.06Z" style="fill:#EBA5BE"></path><path d="M169.2,247.75l19.45-11.23c.23-.14.43,0,.43.25v1.35a1,1,0,0,1-.43.75L169.2,250.09c-.24.14-.43,0-.43-.25V248.5A1,1,0,0,1,169.2,247.75Z" style="fill:#fafafa"></path><path d="M169.2,252.44l19.45-11.23c.23-.14.43,0,.43.25v1.35a1,1,0,0,1-.43.75L169.2,254.78c-.24.14-.43,0-.43-.25v-1.34A1,1,0,0,1,169.2,252.44Z" style="fill:#fafafa"></path><path d="M154.55,283.11a2.28,2.28,0,0,0-.86,1.83c0,.74.38,1.11.86.84a2.3,2.3,0,0,0,.87-1.84C155.42,283.21,155,282.84,154.55,283.11Z" style="fill:#EBA5BE"></path><path d="M156.48,280.72l-.68.4v-.36c0-.23-.12-.34-.27-.26l-1.95,1.13a.7.7,0,0,0-.27.57v.36l-.69.39a1.48,1.48,0,0,0-.56,1.18v3.5c0,.47.25.71.56.54l3.86-2.23a1.48,1.48,0,0,0,.56-1.18v-3.5C157,280.78,156.79,280.54,156.48,280.72Zm-1.93,5.8c-.74.43-1.35-.15-1.35-1.3a3.57,3.57,0,0,1,1.35-2.85c.74-.43,1.35.15,1.35,1.3A3.57,3.57,0,0,1,154.55,286.52Z" style="fill:#EBA5BE"></path><path d="M144.4,299.84a.28.28,0,0,1-.13,0,.24.24,0,0,1-.12-.22V280.83a.22.22,0,0,1,.12-.21l20.31-11.73a.23.23,0,0,1,.25,0,.25.25,0,0,1,.13.22v18.76a.23.23,0,0,1-.13.21l-20.31,11.73Zm.25-18.86v18.18l19.81-11.44V269.54Z" style="fill:#EBA5BE"></path><path d="M144.4,299.84a.23.23,0,0,1-.14,0,.25.25,0,0,1-.07-.35L151,289.29a.26.26,0,0,1,.35-.07.25.25,0,0,1,.06.35l-6.77,10.16A.23.23,0,0,1,144.4,299.84Z" style="fill:#EBA5BE"></path><path d="M157.93,279.52a.3.3,0,0,1-.14,0,.24.24,0,0,1-.06-.34L164.5,269a.25.25,0,0,1,.35-.07.24.24,0,0,1,.06.34l-6.77,10.17A.26.26,0,0,1,157.93,279.52Z" style="fill:#EBA5BE"></path><path d="M164.71,288.12l-.08,0-6.37-2.2a.25.25,0,0,1,.16-.48l6.37,2.21a.25.25,0,0,1-.08.49Z" style="fill:#EBA5BE"></path><path d="M150.83,283.31h-.08l-6.44-2.23a.26.26,0,0,1-.15-.32.25.25,0,0,1,.32-.15l6.43,2.22a.26.26,0,0,1,.16.32A.25.25,0,0,1,150.83,283.31Z" style="fill:#EBA5BE"></path><path d="M169.2,271.2l11.32-6.54c.24-.13.43,0,.43.25v1.35a.92.92,0,0,1-.43.75l-11.32,6.54c-.24.13-.43,0-.43-.25V272A1,1,0,0,1,169.2,271.2Z" style="fill:#EBA5BE"></path><path d="M169.2,275.89l19.45-11.22c.23-.14.43,0,.43.25v1.34a1,1,0,0,1-.43.75L169.2,278.24c-.24.13-.43,0-.43-.25v-1.35A1,1,0,0,1,169.2,275.89Z" style="fill:#fafafa"></path><path d="M169.2,280.58l19.45-11.22c.23-.14.43,0,.43.25V271a1,1,0,0,1-.43.75L169.2,282.93c-.24.13-.43,0-.43-.25v-1.35A1,1,0,0,1,169.2,280.58Z" style="fill:#fafafa"></path><path d="M140.33,250.59a.24.24,0,0,1-.21-.12.25.25,0,0,1,.09-.34L193,219.64a.25.25,0,0,1,.25.43l-52.81,30.49A.28.28,0,0,1,140.33,250.59Z" style="fill:#37474f"></path><path d="M140.33,278.74a.25.25,0,0,1-.12-.47L193,247.78a.25.25,0,0,1,.34.09.24.24,0,0,1-.09.34L140.46,278.7A.2.2,0,0,1,140.33,278.74Z" style="fill:#37474f"></path><path d="M197.2,283.43a.26.26,0,0,1-.25-.25V194.06a.25.25,0,0,1,.5,0v89.12A.25.25,0,0,1,197.2,283.43Z" style="fill:#37474f"></path><path d="M190.7,278.88v1.88c0,.45.25.55.56.23l2.8-2.86c.31-.32.21-.53-.24-.47l-2.33.31A.94.94,0,0,0,190.7,278.88Z" style="fill:#EBA5BE"></path><path d="M186.13,281.52v1.88c0,.44-.25.84-.56.88l-2.8.37c-.31,0-.21-.29.23-.74l2.33-2.38C185.77,281.08,186.13,281.07,186.13,281.52Z" style="fill:#EBA5BE"></path><path d="M144.83,305.22,164.27,294c.24-.14.44,0,.44.25v1.34a.94.94,0,0,1-.44.75l-19.44,11.23c-.24.14-.43,0-.43-.25V306A1,1,0,0,1,144.83,305.22Z" style="fill:#fafafa"></path><path d="M242.62,202.78a4.79,4.79,0,0,0-1.81,3.84c0,1.54.81,2.33,1.81,1.75a4.8,4.8,0,0,0,1.82-3.84C244.44,203,243.62,202.2,242.62,202.78Z" style="fill:#EBA5BE"></path><path d="M246.34,198.42l-1.33.76v-.69c0-.44-.23-.66-.51-.5l-3.75,2.17a1.37,1.37,0,0,0-.52,1.1v.68l-1.32.77a2.81,2.81,0,0,0-1.08,2.27v6.72c0,.91.48,1.37,1.08,1l7.43-4.29a2.82,2.82,0,0,0,1.07-2.27v-6.72C247.41,198.54,246.93,198.08,246.34,198.42Zm-3.72,11.14c-1.43.83-2.59-.29-2.59-2.49s1.16-4.66,2.59-5.48,2.59.29,2.59,2.49S244.05,208.74,242.62,209.56Z" style="fill:#EBA5BE"></path><path d="M205.33,255.53a.51.51,0,0,1-.25-.06.5.5,0,0,1-.25-.44v-61a.47.47,0,0,1,.25-.43l73.11-42.22a.5.5,0,0,1,.75.43v61a.48.48,0,0,1-.25.43l-73.11,42.22A.57.57,0,0,1,205.33,255.53Zm.5-61.18v59.82l72.11-41.64V152.71Z" style="fill:#EBA5BE"></path><path d="M278.44,213.32a.25.25,0,0,1-.12,0l-27.7-7a.5.5,0,0,1,.25-1l27.7,7a.5.5,0,0,1,.36.6A.5.5,0,0,1,278.44,213.32Z" style="fill:#EBA5BE"></path><path d="M235.33,202.26l-.13,0-30-7.7a.5.5,0,1,1,.25-1l30,7.7a.5.5,0,0,1-.12,1Z" style="fill:#EBA5BE"></path><path d="M205.33,255.53a.52.52,0,0,1-.29-.09.5.5,0,0,1-.12-.7l28.43-39.87a.51.51,0,0,1,.7-.11.5.5,0,0,1,.12.7l-28.44,39.86A.48.48,0,0,1,205.33,255.53Z" style="fill:#EBA5BE"></path><path d="M250.89,191.7a.52.52,0,0,1-.29-.09.5.5,0,0,1-.12-.69L278,151.56a.51.51,0,0,1,.7-.13.5.5,0,0,1,.12.7L251.3,191.49A.49.49,0,0,1,250.89,191.7Z" style="fill:#EBA5BE"></path><path d="M327.19,208.28a.25.25,0,0,1-.25-.25V118.92a.25.25,0,0,1,.5,0V208A.25.25,0,0,1,327.19,208.28Z" style="fill:#37474f"></path><path d="M283.59,148.87l26.27-15.16c.6-.35,1.08-.07,1.08.62v2.19a2.4,2.4,0,0,1-1.08,1.88l-26.27,15.16c-.6.35-1.08.07-1.08-.62v-2.19A2.4,2.4,0,0,1,283.59,148.87Z" style="fill:#EBA5BE"></path><path d="M282.94,156.28l19.44-11.22c.24-.14.44,0,.44.25v1.34a.94.94,0,0,1-.44.75l-19.44,11.23c-.24.14-.43,0-.43-.25V157A1,1,0,0,1,282.94,156.28Z" style="fill:#fafafa"></path><path d="M282.51,163.82a.25.25,0,0,1-.22-.12.26.26,0,0,1,.09-.35l38.53-22.24a.25.25,0,1,1,.25.43l-38.53,22.25Z" style="fill:#37474f"></path><path d="M282.51,166.17a.26.26,0,0,1-.22-.13.25.25,0,0,1,.09-.34l38.53-22.25a.25.25,0,0,1,.34.1.25.25,0,0,1-.09.34l-38.53,22.24A.28.28,0,0,1,282.51,166.17Z" style="fill:#37474f"></path><path d="M282.51,168.51a.25.25,0,0,1-.22-.12.26.26,0,0,1,.09-.35l38.53-22.24a.25.25,0,1,1,.25.43l-38.53,22.25Z" style="fill:#37474f"></path><path d="M282.51,170.86a.26.26,0,0,1-.22-.13.25.25,0,0,1,.09-.34l38.53-22.24a.25.25,0,0,1,.25.43l-38.53,22.24A.19.19,0,0,1,282.51,170.86Z" style="fill:#37474f"></path><path d="M282.51,173.2a.25.25,0,0,1-.22-.12.26.26,0,0,1,.09-.35l38.53-22.24a.25.25,0,0,1,.25.43l-38.53,22.25Z" style="fill:#37474f"></path><path d="M282.51,175.55a.26.26,0,0,1-.22-.13.25.25,0,0,1,.09-.34l18.28-10.55a.25.25,0,0,1,.25.43l-18.28,10.55A.19.19,0,0,1,282.51,175.55Z" style="fill:#37474f"></path><path d="M282.51,180.24a.26.26,0,0,1-.22-.13.25.25,0,0,1,.09-.34l38.53-22.24a.25.25,0,0,1,.25.43L282.63,180.2A.19.19,0,0,1,282.51,180.24Z" style="fill:#37474f"></path><path d="M282.51,182.58a.25.25,0,0,1-.22-.12.24.24,0,0,1,.09-.34l38.53-22.25a.25.25,0,0,1,.25.43l-38.53,22.25A.27.27,0,0,1,282.51,182.58Z" style="fill:#37474f"></path><path d="M282.51,184.93a.26.26,0,0,1-.22-.13.25.25,0,0,1,.09-.34l38.53-22.24a.25.25,0,0,1,.25.43l-38.53,22.24A.19.19,0,0,1,282.51,184.93Z" style="fill:#37474f"></path><path d="M282.51,187.27a.25.25,0,0,1-.22-.12.25.25,0,0,1,.09-.34l38.53-22.25a.25.25,0,0,1,.25.43l-38.53,22.25A.27.27,0,0,1,282.51,187.27Z" style="fill:#37474f"></path><path d="M282.51,189.62a.26.26,0,0,1-.22-.13.25.25,0,0,1,.09-.34l38.53-22.24a.25.25,0,0,1,.25.43l-38.53,22.24A.19.19,0,0,1,282.51,189.62Z" style="fill:#37474f"></path><path d="M282.51,192a.25.25,0,0,1-.22-.12.25.25,0,0,1,.09-.34l18.28-10.56a.25.25,0,0,1,.34.09.26.26,0,0,1-.09.35l-18.28,10.55A.27.27,0,0,1,282.51,192Z" style="fill:#37474f"></path><path d="M282.51,196.65a.25.25,0,0,1-.22-.12.25.25,0,0,1,.09-.34l38.53-22.25a.25.25,0,0,1,.25.43l-38.53,22.25A.27.27,0,0,1,282.51,196.65Z" style="fill:#37474f"></path><path d="M282.51,199a.26.26,0,0,1-.22-.13.25.25,0,0,1,.09-.34l38.53-22.24a.25.25,0,0,1,.25.43L282.63,199A.19.19,0,0,1,282.51,199Z" style="fill:#37474f"></path><path d="M282.51,201.34a.25.25,0,0,1-.22-.12.25.25,0,0,1,.09-.34l38.53-22.25a.25.25,0,0,1,.25.43l-38.53,22.25A.27.27,0,0,1,282.51,201.34Z" style="fill:#37474f"></path><path d="M282.51,203.69a.26.26,0,0,1-.22-.13.25.25,0,0,1,.09-.34L320.91,181a.25.25,0,0,1,.25.43l-38.53,22.25Z" style="fill:#37474f"></path><path d="M282.51,206a.25.25,0,0,1-.22-.12.25.25,0,0,1,.09-.34l38.53-22.25a.25.25,0,0,1,.34.09.26.26,0,0,1-.09.35L282.63,206A.27.27,0,0,1,282.51,206Z" style="fill:#37474f"></path><path d="M282.51,208.38a.26.26,0,0,1-.22-.13.25.25,0,0,1,.09-.34l18.28-10.55a.25.25,0,1,1,.25.43l-18.28,10.56Z" style="fill:#37474f"></path><path d="M355.27,112.51a.79.79,0,0,0-.73.09l-14.08,8.13a2.06,2.06,0,0,0-.73.76l7.77,2.85Z" style="fill:#EBA5BE"></path><path d="M355.62,113.23a.79.79,0,0,0-.31-.71l-7.81,13.53-7.81-4.51a2.28,2.28,0,0,0-.32,1.07v11.57c0,.69.49,1,1.09.62l14.08-8.13a2.37,2.37,0,0,0,1.08-1.87Z" style="fill:#EBA5BE"></path><path d="M336.23,118.73a.25.25,0,0,1-.13-.46l.65-.38a.25.25,0,1,1,.25.43l-.65.38A.24.24,0,0,1,336.23,118.73Z" style="fill:#EBA5BE"></path><path d="M338.13,117.64a.26.26,0,0,1-.22-.13.25.25,0,0,1,.09-.34l1.25-.72a.25.25,0,0,1,.25.43l-1.25.72A.19.19,0,0,1,338.13,117.64Zm2.49-1.45a.24.24,0,0,1-.21-.12.25.25,0,0,1,.09-.34l1.25-.72a.25.25,0,0,1,.25.43l-1.25.72A.28.28,0,0,1,340.62,116.19Zm2.5-1.44a.24.24,0,0,1-.12-.46l1.24-.72a.25.25,0,0,1,.25.43l-1.24.72A.31.31,0,0,1,343.12,114.75Zm2.5-1.44a.25.25,0,0,1-.22-.12.24.24,0,0,1,.09-.34l1.25-.73a.26.26,0,0,1,.34.1.25.25,0,0,1-.09.34l-1.25.72A.27.27,0,0,1,345.62,113.31Zm2.49-1.44a.24.24,0,0,1-.21-.12.26.26,0,0,1,.09-.35l1.25-.72a.25.25,0,0,1,.34.09.26.26,0,0,1-.09.35l-1.25.72A.28.28,0,0,1,348.11,111.87Zm2.5-1.44a.26.26,0,0,1-.22-.13.26.26,0,0,1,.09-.34l1.25-.72a.26.26,0,0,1,.35.09.26.26,0,0,1-.1.34l-1.25.73A.24.24,0,0,1,350.61,110.43Zm2.5-1.44a.26.26,0,0,1-.22-.13.25.25,0,0,1,.09-.34l1.25-.72a.25.25,0,0,1,.25.43l-1.25.72A.19.19,0,0,1,353.11,109Zm2.49-1.44a.25.25,0,0,1-.12-.47l1.25-.72a.25.25,0,0,1,.34.09.26.26,0,0,1-.09.34l-1.25.72A.2.2,0,0,1,355.6,107.55Z" style="fill:#EBA5BE"></path><path d="M358.1,106.11a.26.26,0,0,1-.22-.13.26.26,0,0,1,.09-.34l.65-.38a.26.26,0,0,1,.35.1.26.26,0,0,1-.1.34l-.65.37A.25.25,0,0,1,358.1,106.11Z" style="fill:#EBA5BE"></path><path d="M335.31,141.65a.25.25,0,0,1-.25-.25v-.75a.25.25,0,0,1,.5,0v.75A.25.25,0,0,1,335.31,141.65Z" style="fill:#EBA5BE"></path><path d="M335.31,139.38a.25.25,0,0,1-.25-.25V137.6a.25.25,0,1,1,.5,0v1.53A.25.25,0,0,1,335.31,139.38Zm0-3a.25.25,0,0,1-.25-.25v-1.53a.25.25,0,0,1,.5,0v1.53A.25.25,0,0,1,335.31,136.33Zm0-3.05a.25.25,0,0,1-.25-.25V131.5a.25.25,0,0,1,.5,0V133A.25.25,0,0,1,335.31,133.28Zm0-3.06a.25.25,0,0,1-.25-.25v-1.52a.25.25,0,0,1,.5,0V130A.25.25,0,0,1,335.31,130.22Zm0-3a.25.25,0,0,1-.25-.25V125.4a.25.25,0,0,1,.5,0v1.52A.25.25,0,0,1,335.31,127.17Zm0-3a.25.25,0,0,1-.25-.25v-1.52a.25.25,0,1,1,.5,0v1.52A.25.25,0,0,1,335.31,124.12Z" style="fill:#EBA5BE"></path><path d="M335.31,121.07a.25.25,0,0,1-.25-.25v-.75a.25.25,0,0,1,.5,0v.75A.25.25,0,0,1,335.31,121.07Z" style="fill:#EBA5BE"></path><path d="M358.12,129.55a.26.26,0,0,1-.22-.13.25.25,0,0,1,.09-.34l.65-.37a.25.25,0,0,1,.25.43l-.65.37A.19.19,0,0,1,358.12,129.55Z" style="fill:#EBA5BE"></path><path d="M338.13,141.09a.26.26,0,0,1-.22-.13.25.25,0,0,1,.09-.34l1.25-.72a.25.25,0,0,1,.25.43l-1.25.72A.19.19,0,0,1,338.13,141.09Zm2.5-1.44a.26.26,0,0,1-.22-.13.25.25,0,0,1,.09-.34l1.25-.72a.25.25,0,0,1,.25.43l-1.25.72A.28.28,0,0,1,340.63,139.65Zm2.5-1.45a.25.25,0,0,1-.22-.12.25.25,0,0,1,.09-.34l1.25-.73a.26.26,0,0,1,.34.1.25.25,0,0,1-.09.34l-1.25.72Zm2.49-1.44a.24.24,0,0,1-.21-.12.26.26,0,0,1,.09-.35l1.25-.72a.25.25,0,0,1,.34.09.26.26,0,0,1-.09.35l-1.25.72A.28.28,0,0,1,345.62,136.76Zm2.5-1.44a.25.25,0,0,1-.12-.47l1.25-.72a.25.25,0,0,1,.25.43l-1.25.72A.2.2,0,0,1,348.12,135.32Zm2.5-1.45a.25.25,0,0,1-.22-.12.26.26,0,0,1,.1-.34l1.25-.72a.25.25,0,0,1,.25.43l-1.25.72A.31.31,0,0,1,350.62,133.87Zm2.5-1.44a.25.25,0,0,1-.22-.12.25.25,0,0,1,.1-.34l1.24-.73a.27.27,0,0,1,.35.1.26.26,0,0,1-.1.34l-1.24.72A.31.31,0,0,1,353.12,132.43Zm2.5-1.44a.26.26,0,0,1-.22-.13.25.25,0,0,1,.09-.34l1.25-.72a.25.25,0,1,1,.25.43l-1.25.73Z" style="fill:#EBA5BE"></path><path d="M336.23,142.18a.25.25,0,0,1-.22-.12.26.26,0,0,1,.09-.34l.65-.38a.26.26,0,0,1,.35.09.27.27,0,0,1-.1.35l-.65.37A.24.24,0,0,1,336.23,142.18Z" style="fill:#EBA5BE"></path><path d="M359.68,107a.25.25,0,0,1-.25-.25V106a.25.25,0,0,1,.25-.25.25.25,0,0,1,.25.25v.75A.25.25,0,0,1,359.68,107Z" style="fill:#EBA5BE"></path><path d="M359.68,125.31a.25.25,0,0,1-.25-.25v-1.53a.25.25,0,0,1,.25-.25.25.25,0,0,1,.25.25v1.53A.25.25,0,0,1,359.68,125.31Zm0-3a.26.26,0,0,1-.25-.25v-1.53a.25.25,0,0,1,.25-.25.25.25,0,0,1,.25.25V122A.25.25,0,0,1,359.68,122.26Zm0-3.06a.25.25,0,0,1-.25-.25v-1.52a.25.25,0,0,1,.25-.25.25.25,0,0,1,.25.25V119A.25.25,0,0,1,359.68,119.2Zm0-3a.25.25,0,0,1-.25-.25v-1.52a.25.25,0,0,1,.25-.25.25.25,0,0,1,.25.25v1.52A.25.25,0,0,1,359.68,116.15Zm0-3.05a.25.25,0,0,1-.25-.25v-1.52a.25.25,0,0,1,.25-.25.25.25,0,0,1,.25.25v1.52A.25.25,0,0,1,359.68,113.1Zm0-3a.25.25,0,0,1-.25-.25v-1.53a.26.26,0,0,1,.25-.25.25.25,0,0,1,.25.25v1.53A.25.25,0,0,1,359.68,110.05Z" style="fill:#EBA5BE"></path><path d="M359.68,127.58a.25.25,0,0,1-.25-.25v-.75a.26.26,0,0,1,.25-.25.25.25,0,0,1,.25.25v.75A.25.25,0,0,1,359.68,127.58Z" style="fill:#EBA5BE"></path><path d="M358.77,106.78a.2.2,0,0,1-.13,0,.24.24,0,0,1-.12-.21v-2.12a.27.27,0,0,1,.12-.22l1.84-1a.23.23,0,0,1,.25,0,.24.24,0,0,1,.12.21v2.12a.27.27,0,0,1-.12.22l-1.84,1A.19.19,0,0,1,358.77,106.78Zm.25-2.23v1.55l1.33-.78v-1.54Z" style="fill:#EBA5BE"></path><path d="M358.77,130.23a.24.24,0,0,1-.25-.25v-2.12a.24.24,0,0,1,.12-.21l1.84-1.06a.23.23,0,0,1,.25,0,.24.24,0,0,1,.12.21v2.12a.27.27,0,0,1-.12.22l-1.84,1.06A.27.27,0,0,1,358.77,130.23ZM359,128v1.54l1.33-.77v-1.54Z" style="fill:#EBA5BE"></path><path d="M334.39,120.85a.27.27,0,0,1-.12,0,.26.26,0,0,1-.13-.22v-2.12a.23.23,0,0,1,.13-.21l1.83-1.06a.23.23,0,0,1,.25,0,.23.23,0,0,1,.13.21v2.12a.26.26,0,0,1-.13.22l-1.83,1.06A.28.28,0,0,1,334.39,120.85Zm.25-2.22v1.54l1.34-.77v-1.54Z" style="fill:#EBA5BE"></path><path d="M334.39,144.3l-.12,0a.26.26,0,0,1-.13-.22v-2.12a.23.23,0,0,1,.13-.21l1.83-1.06a.23.23,0,0,1,.25,0,.24.24,0,0,1,.13.21V143a.25.25,0,0,1-.13.22l-1.83,1.06A.28.28,0,0,1,334.39,144.3Zm.25-2.22v1.54l1.34-.77v-1.54Z" style="fill:#EBA5BE"></path><path d="M360.61,117.57a2.2,2.2,0,0,1-.93,1.76c-.51.3-.92,0-.92-.69a2.21,2.21,0,0,1,.92-1.77C360.19,116.58,360.61,116.89,360.61,117.57Z" style="fill:#EBA5BE"></path><path d="M348.41,111.44a2.23,2.23,0,0,1-.92,1.77c-.51.29-.92,0-.92-.7a2.23,2.23,0,0,1,.92-1.77C348,110.45,348.41,110.76,348.41,111.44Z" style="fill:#EBA5BE"></path><path d="M348.41,134.89a2.23,2.23,0,0,1-.92,1.77c-.51.29-.92,0-.92-.7a2.19,2.19,0,0,1,.92-1.76C348,133.9,348.41,134.21,348.41,134.89Z" style="fill:#EBA5BE"></path><path d="M336.23,131.68a2.23,2.23,0,0,1-.92,1.77c-.51.29-.92,0-.92-.7a2.19,2.19,0,0,1,.92-1.76C335.82,130.69,336.23,131,336.23,131.68Z" style="fill:#EBA5BE"></path><path d="M332.33,148.87l30.33-17.51c.6-.34,1.09-.06,1.09.63v2.19a2.38,2.38,0,0,1-1.09,1.87l-30.33,17.51c-.6.35-1.08.07-1.08-.62v-2.19A2.4,2.4,0,0,1,332.33,148.87Z" style="fill:#fafafa"></path><path d="M210.59,270.75a1.37,1.37,0,0,1-.69-.18,1.76,1.76,0,0,1-.76-1.62v-4.38a5.08,5.08,0,0,1,2.29-4l16-9.22a1.56,1.56,0,0,1,2.54,1.46v4.38a5.08,5.08,0,0,1-2.29,4l-16,9.23A2.2,2.2,0,0,1,210.59,270.75Zm17.91-19.2a1.76,1.76,0,0,0-.84.26l-16,9.23a4.49,4.49,0,0,0-2,3.53V269a1.07,1.07,0,0,0,1.79,1l16-9.22a4.54,4.54,0,0,0,2-3.54v-4.38a1.28,1.28,0,0,0-.51-1.18A.82.82,0,0,0,228.5,251.55Z" style="fill:#fafafa"></path><path d="M212.85,267.38a.84.84,0,0,1-.41-.11,1,1,0,0,1-.44-.92v-2.19a2.63,2.63,0,0,1,1.21-2.09L215.1,261a1,1,0,0,1,1-.08,1,1,0,0,1,.44.92V264a2.63,2.63,0,0,1-1.21,2.09l-1.89,1.09A1.17,1.17,0,0,1,212.85,267.38Zm2.86-6.09a.76.76,0,0,0-.36.12l-1.89,1.09a2.15,2.15,0,0,0-1,1.66v2.19a.42.42,0,0,0,.71.41l1.89-1.09a2.15,2.15,0,0,0,1-1.66v-2.19a.55.55,0,0,0-.19-.49A.38.38,0,0,0,215.71,261.29Z" style="fill:#fafafa"></path><path d="M218.78,260.43l7.81-4.5c.24-.14.43,0,.43.25v1a1,1,0,0,1-.43.75l-7.81,4.5c-.24.14-.44,0-.44-.25v-1A1,1,0,0,1,218.78,260.43Z" style="fill:#fafafa"></path><path d="M239.1,254.28a1.37,1.37,0,0,1-.69-.18,1.74,1.74,0,0,1-.76-1.61v-4.38a5.08,5.08,0,0,1,2.29-4l16-9.23a1.78,1.78,0,0,1,1.79-.15,1.75,1.75,0,0,1,.75,1.62v4.38a5.05,5.05,0,0,1-2.29,4l-16,9.22A2.26,2.26,0,0,1,239.1,254.28Zm1.09-9.71a4.54,4.54,0,0,0-2,3.54v4.38a1.08,1.08,0,0,0,1.8,1l16-9.23a4.48,4.48,0,0,0,2-3.53v-4.38a1.08,1.08,0,0,0-1.79-1Z" style="fill:#fafafa"></path><path d="M241.36,250.91a.79.79,0,0,1-.4-.1,1,1,0,0,1-.44-.92V247.7a2.64,2.64,0,0,1,1.2-2.09l1.9-1.1a.91.91,0,0,1,1.46.84v2.19a2.64,2.64,0,0,1-1.21,2.1l-1.9,1.09A1.22,1.22,0,0,1,241.36,250.91Zm2.87-6.08a.78.78,0,0,0-.36.11L242,246a2.14,2.14,0,0,0-.95,1.66v2.19a.53.53,0,0,0,.19.48.52.52,0,0,0,.51-.07l1.9-1.1a2.15,2.15,0,0,0,1-1.66v-2.19a.54.54,0,0,0-.19-.48A.29.29,0,0,0,244.23,244.83Z" style="fill:#fafafa"></path><path d="M247.29,244l7.81-4.5c.24-.14.44,0,.44.25v1a1,1,0,0,1-.44.75l-7.81,4.5c-.24.14-.43,0-.43-.25v-1A.93.93,0,0,1,247.29,244Z" style="fill:#fafafa"></path><path d="M267.62,237.82a1.37,1.37,0,0,1-.69-.18,1.76,1.76,0,0,1-.76-1.62v-4.38a5,5,0,0,1,2.29-4l16-9.23a1.74,1.74,0,0,1,1.78-.15,1.76,1.76,0,0,1,.76,1.62v4.38a5,5,0,0,1-2.29,4l-16,9.23A2.2,2.2,0,0,1,267.62,237.82Zm17.91-19.2a1.76,1.76,0,0,0-.84.26l-16,9.23a4.52,4.52,0,0,0-2,3.53V236a1.29,1.29,0,0,0,.51,1.19,1.3,1.3,0,0,0,1.28-.15l16-9.23a4.49,4.49,0,0,0,2-3.53v-4.38a1.29,1.29,0,0,0-.51-1.19A.93.93,0,0,0,285.53,218.62Z" style="fill:#EBA5BE"></path><path d="M269.88,234.45a.84.84,0,0,1-.41-.11,1,1,0,0,1-.44-.91v-2.2a2.63,2.63,0,0,1,1.21-2.09l1.9-1.09a.9.9,0,0,1,1.45.84v2.19a2.64,2.64,0,0,1-1.2,2.09l-1.9,1.1A1.25,1.25,0,0,1,269.88,234.45Zm.61-4.87a2.15,2.15,0,0,0-1,1.65v2.2a.54.54,0,0,0,.19.48.55.55,0,0,0,.52-.08l1.9-1.09a2.17,2.17,0,0,0,.95-1.66v-2.19a.53.53,0,0,0-.19-.48.5.5,0,0,0-.51.07Z" style="fill:#EBA5BE"></path><path d="M275.81,227.5l7.81-4.5c.24-.13.43,0,.43.25v1a1,1,0,0,1-.43.75l-7.81,4.49c-.24.14-.44,0-.44-.25v-1A1,1,0,0,1,275.81,227.5Z" style="fill:#EBA5BE"></path><path d="M296.13,221.36a1.3,1.3,0,0,1-.68-.18,1.76,1.76,0,0,1-.76-1.62v-4.38a5.05,5.05,0,0,1,2.29-4L313,202a1.56,1.56,0,0,1,2.54,1.46v4.38a5.08,5.08,0,0,1-2.29,4l-16,9.23A2.23,2.23,0,0,1,296.13,221.36Zm17.92-19.2a1.73,1.73,0,0,0-.84.26l-16,9.23a4.49,4.49,0,0,0-2,3.53v4.38a1.3,1.3,0,0,0,.51,1.19,1.29,1.29,0,0,0,1.28-.16l16-9.22a4.54,4.54,0,0,0,2-3.54v-4.38a1.28,1.28,0,0,0-.51-1.18A.82.82,0,0,0,314.05,202.16Z" style="fill:#fafafa"></path><path d="M298.4,218a.81.81,0,0,1-.41-.11,1,1,0,0,1-.44-.92v-2.19a2.64,2.64,0,0,1,1.2-2.09l1.9-1.1a1,1,0,0,1,1-.07,1,1,0,0,1,.44.92v2.19a2.63,2.63,0,0,1-1.21,2.09L299,217.8A1.23,1.23,0,0,1,298.4,218Zm.6-4.88a2.17,2.17,0,0,0-.95,1.66V217a.55.55,0,0,0,.19.49.53.53,0,0,0,.51-.08l1.9-1.09a2.15,2.15,0,0,0,1-1.66v-2.19a.42.42,0,0,0-.71-.41Z" style="fill:#fafafa"></path><path d="M304.32,211l7.81-4.5c.24-.14.44,0,.44.25v1a1,1,0,0,1-.44.75l-7.81,4.5c-.24.14-.43,0-.43-.25v-1A1,1,0,0,1,304.32,211Z" style="fill:#fafafa"></path><path d="M144.4,386.74a.32.32,0,0,1-.19-.05.37.37,0,0,1-.19-.32V320.7a.36.36,0,0,1,.19-.32L197,289.89a.35.35,0,0,1,.37,0,.36.36,0,0,1,.19.32v65.67a.36.36,0,0,1-.19.32l-52.81,30.49A.29.29,0,0,1,144.4,386.74Zm.37-.37h0Zm0-65.45v64.8l52.06-30.06v-64.8Z" style="fill:#EBA5BE"></path><path d="M148.46,356.25a.32.32,0,0,1-.19-.05.38.38,0,0,1-.19-.32V323.05a.4.4,0,0,1,.19-.33L193,296.92a.42.42,0,0,1,.38,0,.37.37,0,0,1,.19.33v32.83a.39.39,0,0,1-.19.33L148.65,356.2A.34.34,0,0,1,148.46,356.25Zm.37-.37h0Zm0-32.62v32l43.94-25.37v-32Z" style="fill:#EBA5BE"></path><path d="M148.89,360.32l11.32-6.54c.24-.13.44,0,.44.25v1.35a1,1,0,0,1-.44.75l-11.32,6.53c-.24.14-.43,0-.43-.25v-1.34A1,1,0,0,1,148.89,360.32Z" style="fill:#EBA5BE"></path><path d="M148.89,365l35.83-20.69c.24-.13.43,0,.43.25v1.35a1,1,0,0,1-.43.75l-35.83,20.68c-.24.14-.43,0-.43-.25v-1.34A1,1,0,0,1,148.89,365Z" style="fill:#fafafa"></path><path d="M148.89,374.39l35.83-20.68c.24-.14.43,0,.43.25v1.34a1,1,0,0,1-.43.75l-35.83,20.69c-.24.13-.43,0-.43-.25v-1.35A1,1,0,0,1,148.89,374.39Z" style="fill:#fafafa"></path><path d="M148.89,369.7,184.72,349c.24-.13.43,0,.43.25v1.35a1,1,0,0,1-.43.75L148.89,372c-.24.14-.43,0-.43-.25v-1.34A1,1,0,0,1,148.89,369.7Z" style="fill:#fafafa"></path><path d="M193.14,330.46h-.06L177.54,328a.36.36,0,0,1-.31-.42.38.38,0,0,1,.43-.32l15.54,2.45a.38.38,0,0,1,.31.43A.38.38,0,0,1,193.14,330.46Z" style="fill:#EBA5BE"></path><path d="M164,325.87H164l-15.56-2.45a.39.39,0,0,1-.31-.43.38.38,0,0,1,.43-.32l15.55,2.45a.39.39,0,0,1,.32.43A.38.38,0,0,1,164,325.87Z" style="fill:#EBA5BE"></path><path d="M148.46,356.25a.37.37,0,0,1-.3-.6l15.55-20.4a.38.38,0,0,1,.52-.07.37.37,0,0,1,.07.53l-15.54,20.4A.41.41,0,0,1,148.46,356.25Z" style="fill:#EBA5BE"></path><path d="M177.57,318.05a.37.37,0,0,1-.3-.6L192.84,297a.38.38,0,1,1,.6.46L177.87,317.9A.36.36,0,0,1,177.57,318.05Z" style="fill:#EBA5BE"></path><path d="M170.8,324.22a4.32,4.32,0,0,0-1.64,3.46c0,1.39.74,2.09,1.64,1.57a4.32,4.32,0,0,0,1.64-3.46C172.44,324.4,171.7,323.7,170.8,324.22Z" style="fill:#EBA5BE"></path><path d="M174.31,320l-1.25.72V320c0-.42-.22-.63-.49-.47L169,321.62a1.28,1.28,0,0,0-.49,1v.65l-1.25.72a2.7,2.7,0,0,0-1,2.15v6.36c0,.86.46,1.3,1,1l7-4.05a2.68,2.68,0,0,0,1-2.15v-6.36C175.33,320.08,174.87,319.64,174.31,320Zm-3.51,10.54c-1.35.78-2.45-.28-2.45-2.36s1.1-4.4,2.45-5.18,2.45.27,2.45,2.35S172.15,329.73,170.8,330.51Z" style="fill:#EBA5BE"></path><path d="M209.39,349.22a.45.45,0,0,1-.19-.05.39.39,0,0,1-.18-.33V283.18a.4.4,0,0,1,.19-.33L262,252.36a.4.4,0,0,1,.37,0,.39.39,0,0,1,.19.33v65.66a.37.37,0,0,1-.19.33l-52.8,30.49A.41.41,0,0,1,209.39,349.22Zm.38-.38Zm0-65.45v64.8l52-30.05v-64.8Z" style="fill:#EBA5BE"></path><path d="M213.45,318.73a.45.45,0,0,1-.19-.05.39.39,0,0,1-.18-.33V285.52a.37.37,0,0,1,.18-.32L258,259.4a.35.35,0,0,1,.37,0,.37.37,0,0,1,.19.32v32.84a.36.36,0,0,1-.19.32l-44.68,25.8A.41.41,0,0,1,213.45,318.73Zm.38-33v32l43.93-25.37v-32Z" style="fill:#EBA5BE"></path><path d="M213.88,322.8l11.32-6.54c.24-.14.44,0,.44.25v1.35a1,1,0,0,1-.44.75l-11.32,6.53c-.23.14-.43,0-.43-.25v-1.34A1,1,0,0,1,213.88,322.8Z" style="fill:#EBA5BE"></path><path d="M213.88,327.49l35.83-20.69c.24-.14.44,0,.44.25v1.35a1,1,0,0,1-.44.75l-35.83,20.68c-.23.14-.43,0-.43-.25v-1.34A1,1,0,0,1,213.88,327.49Z" style="fill:#fafafa"></path><path d="M213.88,336.87l35.83-20.69a.27.27,0,0,1,.44.25v1.35a1,1,0,0,1-.44.75l-35.83,20.68c-.23.14-.43,0-.43-.25v-1.34A1,1,0,0,1,213.88,336.87Z" style="fill:#fafafa"></path><path d="M213.88,332.18l35.83-20.69c.24-.14.44,0,.44.25v1.35a1,1,0,0,1-.44.75l-35.83,20.68c-.23.14-.43,0-.43-.25v-1.34A1,1,0,0,1,213.88,332.18Z" style="fill:#fafafa"></path><path d="M258.13,292.93h-.05l-15.55-2.45a.38.38,0,0,1-.31-.43.38.38,0,0,1,.43-.31l15.54,2.45a.37.37,0,0,1-.06.74Z" style="fill:#EBA5BE"></path><path d="M229,288.35H229l-15.56-2.45a.38.38,0,0,1-.31-.43.38.38,0,0,1,.43-.31l15.56,2.45a.38.38,0,0,1-.06.75Z" style="fill:#EBA5BE"></path><path d="M213.45,318.73a.34.34,0,0,1-.23-.08.38.38,0,0,1-.07-.52l15.55-20.4a.37.37,0,1,1,.59.46l-15.54,20.39A.37.37,0,0,1,213.45,318.73Z" style="fill:#EBA5BE"></path><path d="M242.56,280.53a.4.4,0,0,1-.22-.08.36.36,0,0,1-.07-.52l15.57-20.43a.37.37,0,0,1,.59.45l-15.57,20.43A.36.36,0,0,1,242.56,280.53Z" style="fill:#EBA5BE"></path><path d="M235.79,286.69a4.35,4.35,0,0,0-1.63,3.47c0,1.39.73,2.09,1.63,1.57a4.32,4.32,0,0,0,1.64-3.46C237.43,286.88,236.69,286.17,235.79,286.69Z" style="fill:#EBA5BE"></path><path d="M239.3,282.44l-1.24.73v-.66c0-.41-.22-.62-.49-.47l-3.55,2a1.3,1.3,0,0,0-.49,1v.65l-1.25.72a2.66,2.66,0,0,0-1,2.15V295c0,.87.45,1.3,1,1l7-4.05a2.67,2.67,0,0,0,1-2.15v-6.36C240.32,282.56,239.87,282.12,239.3,282.44ZM235.79,293c-1.35.78-2.45-.27-2.45-2.35s1.1-4.41,2.45-5.19,2.45.28,2.45,2.36S237.14,292.2,235.79,293Z" style="fill:#EBA5BE"></path><path d="M274.38,311.69a.29.29,0,0,1-.18-.05.36.36,0,0,1-.19-.32V245.65a.38.38,0,0,1,.18-.32L327,214.84a.37.37,0,0,1,.38,0,.39.39,0,0,1,.18.33v65.66a.39.39,0,0,1-.18.33l-52.81,30.48A.32.32,0,0,1,274.38,311.69Zm.38-.37h0Zm0-65.45v64.8l52.05-30.05V215.81Z" style="fill:#EBA5BE"></path><path d="M278.44,281.21a.38.38,0,0,1-.37-.38V248a.37.37,0,0,1,.19-.33l44.68-25.79a.35.35,0,0,1,.37,0,.36.36,0,0,1,.19.32V255a.37.37,0,0,1-.19.33l-44.68,25.8A.41.41,0,0,1,278.44,281.21Zm.38-33v32l43.93-25.36v-32Z" style="fill:#EBA5BE"></path><path d="M278.88,285.27l11.32-6.53c.24-.14.43,0,.43.25v1.34a1,1,0,0,1-.43.75l-11.32,6.54a.27.27,0,0,1-.44-.25V286A1,1,0,0,1,278.88,285.27Z" style="fill:#EBA5BE"></path><path d="M278.88,290l35.83-20.68c.23-.14.43,0,.43.25v1.34a1,1,0,0,1-.43.75l-35.83,20.69a.27.27,0,0,1-.44-.25v-1.35A1,1,0,0,1,278.88,290Z" style="fill:#fafafa"></path><path d="M278.88,299.34l35.83-20.68c.23-.14.43,0,.43.25v1.34a.93.93,0,0,1-.43.75l-35.83,20.69c-.24.14-.44,0-.44-.25v-1.35A1,1,0,0,1,278.88,299.34Z" style="fill:#fafafa"></path><path d="M278.88,294.65,314.71,274c.23-.14.43,0,.43.25v1.34a1,1,0,0,1-.43.75L278.88,297a.27.27,0,0,1-.44-.25V295.4A1,1,0,0,1,278.88,294.65Z" style="fill:#fafafa"></path><path d="M300.79,244.48a13.46,13.46,0,0,0-6.1,10.55c0,3.89,2.73,5.46,6.1,3.52A13.48,13.48,0,0,0,306.88,248C306.88,244.11,304.15,242.54,300.79,244.48Zm3.18,5.7-4.54,5.44c-.45.53-.81.4-.81-.29v-5.11a1.18,1.18,0,0,1,1.25-1.19l3.66.14C304.22,249.2,304.42,249.65,304,250.18Z" style="fill:#EBA5BE"></path><path d="M343.44,214.07V221a2.41,2.41,0,0,1-1.09,1.88l-6,3.44c-.6.34-1.09.06-1.09-.63v-6.88a2.38,2.38,0,0,1,1.09-1.87l6-3.44C343,213.1,343.44,213.38,343.44,214.07Z" style="fill:#EBA5BE"></path><path d="M347.93,212.59l9.69-5.61c.24-.14.43,0,.43.25v1.34a1,1,0,0,1-.43.75l-9.69,5.61c-.24.14-.43,0-.43-.25v-1.34A1,1,0,0,1,347.93,212.59Z" style="fill:#EBA5BE"></path><path d="M347.93,217.28l15.38-8.9c.24-.14.43,0,.43.25V210a1,1,0,0,1-.43.75l-15.38,8.9c-.24.13-.43,0-.43-.25V218A1,1,0,0,1,347.93,217.28Z" style="fill:#fafafa"></path><path d="M343.44,230.46v6.88a2.41,2.41,0,0,1-1.09,1.88l-6,3.44c-.6.34-1.09.06-1.09-.63v-6.88a2.38,2.38,0,0,1,1.09-1.87l6-3.44C343,229.49,343.44,229.77,343.44,230.46Z" style="fill:#EBA5BE"></path><path d="M347.93,229l9.69-5.61c.24-.14.43,0,.43.25V225a.93.93,0,0,1-.43.75l-9.69,5.62c-.24.14-.43,0-.43-.25v-1.35A1,1,0,0,1,347.93,229Z" style="fill:#EBA5BE"></path><path d="M347.93,233.67l15.38-8.9c.24-.13.43,0,.43.25v1.35a1,1,0,0,1-.43.75L347.93,236c-.24.14-.43,0-.43-.25v-1.35A1,1,0,0,1,347.93,233.67Z" style="fill:#fafafa"></path><path d="M343.44,246.86v6.88a2.38,2.38,0,0,1-1.09,1.87l-6,3.44c-.6.35-1.09.07-1.09-.62v-6.88a2.41,2.41,0,0,1,1.09-1.88l6-3.44C343,245.89,343.44,246.16,343.44,246.86Z" style="fill:#EBA5BE"></path><path d="M347.93,245.37l9.69-5.61c.24-.14.43,0,.43.25v1.35a1,1,0,0,1-.43.75l-9.69,5.61c-.24.14-.43,0-.43-.25v-1.35A1,1,0,0,1,347.93,245.37Z" style="fill:#EBA5BE"></path><path d="M347.93,250.06l15.38-8.89c.24-.14.43,0,.43.25v1.34a1,1,0,0,1-.43.75l-15.38,8.9c-.24.14-.43,0-.43-.25v-1.35A1,1,0,0,1,347.93,250.06Z" style="fill:#fafafa"></path></g></g><g id="freepik--Screens--inject-3"><g id="freepik--Text--inject-3"><path d="M77.51,230.86l32.23-18.61a4.8,4.8,0,0,0,2.16-3.75V180.67c0-1.38-1-1.94-2.17-1.25L77.51,198a4.78,4.78,0,0,0-2.17,3.75v27.83C75.34,231,76.31,231.55,77.51,230.86Z" style="fill:#fafafa"></path><path d="M76.54,231.66a1.52,1.52,0,0,1-.81-.22,2,2,0,0,1-.89-1.83V201.78a5.27,5.27,0,0,1,2.42-4.19L109.48,179a2,2,0,0,1,2-.16,2,2,0,0,1,.88,1.84V208.5a5.27,5.27,0,0,1-2.42,4.19l-32.22,18.6A2.41,2.41,0,0,1,76.54,231.66Zm34.16-52a1.54,1.54,0,0,0-.72.23L77.76,198.46a4.31,4.31,0,0,0-1.92,3.32v27.83a1.07,1.07,0,0,0,.39,1,1.1,1.1,0,0,0,1-.15l32.22-18.61a4.31,4.31,0,0,0,1.92-3.32V180.67a1.09,1.09,0,0,0-.38-1A.66.66,0,0,0,110.7,179.62Z" style="fill:#e0e0e0"></path><path d="M80.49,199.93l10-5.79c.6-.34,1.08-.06,1.08.63v11.57a2.4,2.4,0,0,1-1.08,1.88l-10,5.78c-.6.35-1.09.07-1.09-.62V201.8A2.38,2.38,0,0,1,80.49,199.93Z" style="fill:#EBA5BE"></path><path d="M96.08,190.92l11.32-6.53c.24-.14.44,0,.44.25v1.52a1,1,0,0,1-.44.75l-11.31,6.53c-.24.14-.44,0-.44-.25v-1.52A1,1,0,0,1,96.08,190.92Z" style="fill:#EBA5BE"></path><path d="M96.08,196.7l11.32-6.54c.24-.13.44,0,.44.25v1.52a1,1,0,0,1-.44.75l-11.31,6.54a.27.27,0,0,1-.44-.25v-1.52A1,1,0,0,1,96.08,196.7Z" style="fill:#EBA5BE"></path><path d="M96.08,202.48l11.32-6.54a.27.27,0,0,1,.44.25v1.52a1,1,0,0,1-.44.75L96.09,205c-.24.14-.44,0-.44-.25v-1.51A1,1,0,0,1,96.08,202.48Z" style="fill:#EBA5BE"></path><path d="M79.84,217.6l27.56-15.88c.24-.14.44,0,.44.25v1.52a1,1,0,0,1-.44.75L79.84,220.11c-.24.14-.44,0-.44-.25v-1.51A.94.94,0,0,1,79.84,217.6Z" style="fill:#EBA5BE"></path><path d="M79.84,223.37l27.56-15.88c.24-.13.44,0,.44.25v1.52a1,1,0,0,1-.44.75L79.84,225.89c-.24.14-.44,0-.44-.25v-1.52A1,1,0,0,1,79.84,223.37Z" style="fill:#EBA5BE"></path><path d="M73.37,196a.39.39,0,0,1-.33-.19.37.37,0,0,1,.14-.51l1.08-.63a.39.39,0,0,1,.52.14.37.37,0,0,1-.14.51l-1.08.62A.35.35,0,0,1,73.37,196Z" style="fill:#EBA5BE"></path><path d="M76.73,194.09a.37.37,0,0,1-.19-.69l2.28-1.32a.38.38,0,0,1,.38.65L76.92,194A.34.34,0,0,1,76.73,194.09Zm4.56-2.63a.38.38,0,0,1-.33-.18.39.39,0,0,1,.14-.52l2.28-1.31a.37.37,0,1,1,.37.65l-2.28,1.31A.31.31,0,0,1,81.29,191.46Zm4.55-2.63a.36.36,0,0,1-.32-.18.38.38,0,0,1,.14-.52l2.27-1.31a.39.39,0,0,1,.52.14.38.38,0,0,1-.14.51L86,188.78A.32.32,0,0,1,85.84,188.83Zm4.56-2.63a.38.38,0,0,1-.33-.18.39.39,0,0,1,.14-.52l2.28-1.31a.37.37,0,0,1,.51.13.38.38,0,0,1-.14.52l-2.27,1.31A.34.34,0,0,1,90.4,186.2ZM95,183.57a.37.37,0,0,1-.18-.7l2.28-1.31a.38.38,0,0,1,.51.13.39.39,0,0,1-.14.52l-2.28,1.31A.32.32,0,0,1,95,183.57Zm4.56-2.63a.37.37,0,0,1-.32-.19.36.36,0,0,1,.13-.51l2.28-1.31a.38.38,0,0,1,.52.13.39.39,0,0,1-.14.52l-2.28,1.31A.41.41,0,0,1,99.51,180.94Zm4.56-2.63a.39.39,0,0,1-.33-.19.37.37,0,0,1,.14-.51l2.28-1.31a.37.37,0,1,1,.37.64l-2.27,1.32A.45.45,0,0,1,104.07,178.31Zm4.55-2.63a.38.38,0,0,1-.32-.19.37.37,0,0,1,.14-.51l2.28-1.32a.38.38,0,0,1,.51.14.37.37,0,0,1-.14.51l-2.28,1.32A.41.41,0,0,1,108.62,175.68Z" style="fill:#EBA5BE"></path><path d="M113.18,173.05a.37.37,0,0,1-.32-.19.36.36,0,0,1,.13-.51l1.09-.63a.38.38,0,0,1,.51.14.37.37,0,0,1-.14.51l-1.08.63A.41.41,0,0,1,113.18,173.05Z" style="fill:#EBA5BE"></path><path d="M71.7,237.37a.38.38,0,0,1-.37-.37v-1.25a.38.38,0,1,1,.75,0V237A.38.38,0,0,1,71.7,237.37Z" style="fill:#EBA5BE"></path><path d="M71.7,233.73a.38.38,0,0,1-.37-.38V231a.38.38,0,0,1,.75,0v2.4A.38.38,0,0,1,71.7,233.73Zm0-4.8a.38.38,0,0,1-.37-.37v-2.4a.38.38,0,0,1,.75,0v2.4A.38.38,0,0,1,71.7,228.93Zm0-4.79a.38.38,0,0,1-.37-.38v-2.39a.38.38,0,1,1,.75,0v2.39A.38.38,0,0,1,71.7,224.14Zm0-4.79a.38.38,0,0,1-.37-.38v-2.4a.37.37,0,0,1,.37-.37.38.38,0,0,1,.38.37V219A.38.38,0,0,1,71.7,219.35Zm0-4.8a.37.37,0,0,1-.37-.37v-2.4a.37.37,0,0,1,.37-.38.38.38,0,0,1,.38.38v2.4A.38.38,0,0,1,71.7,214.55Zm0-4.79a.37.37,0,0,1-.37-.38V207a.37.37,0,0,1,.37-.38.38.38,0,0,1,.38.38v2.39A.38.38,0,0,1,71.7,209.76Zm0-4.8a.36.36,0,0,1-.37-.37v-2.4a.37.37,0,0,1,.37-.37.38.38,0,0,1,.38.37v2.4A.37.37,0,0,1,71.7,205Z" style="fill:#EBA5BE"></path><path d="M71.7,200.17a.37.37,0,0,1-.37-.37v-1.25a.37.37,0,0,1,.37-.38.38.38,0,0,1,.38.38v1.25A.38.38,0,0,1,71.7,200.17Z" style="fill:#EBA5BE"></path><path d="M113.21,215.33a.37.37,0,0,1-.18-.7l1.08-.63a.37.37,0,0,1,.51.14.37.37,0,0,1-.14.51l-1.08.63A.41.41,0,0,1,113.21,215.33Z" style="fill:#EBA5BE"></path><path d="M76.73,236.39a.37.37,0,0,1-.32-.19.37.37,0,0,1,.13-.51l2.28-1.31a.38.38,0,1,1,.38.65l-2.28,1.31A.34.34,0,0,1,76.73,236.39Zm4.56-2.63a.37.37,0,0,1-.32-.19.36.36,0,0,1,.13-.51l2.28-1.32a.39.39,0,0,1,.52.14.37.37,0,0,1-.14.51l-2.28,1.32A.41.41,0,0,1,81.29,233.76Zm4.56-2.63a.37.37,0,0,1-.32-.19.36.36,0,0,1,.13-.51l2.28-1.32a.39.39,0,0,1,.52.14.37.37,0,0,1-.14.51L86,231.08A.41.41,0,0,1,85.85,231.13Zm4.56-2.64a.36.36,0,0,1-.32-.18.38.38,0,0,1,.13-.52l2.28-1.31a.38.38,0,1,1,.38.65l-2.28,1.31A.32.32,0,0,1,90.41,228.49ZM95,225.86a.38.38,0,0,1-.19-.7l2.29-1.32a.38.38,0,0,1,.51.14.37.37,0,0,1-.14.51l-2.28,1.32A.41.41,0,0,1,95,225.86Zm4.56-2.63a.37.37,0,0,1-.18-.7l2.27-1.32a.39.39,0,0,1,.52.14.37.37,0,0,1-.14.51l-2.28,1.32A.41.41,0,0,1,99.53,223.23Zm4.56-2.64a.36.36,0,0,1-.32-.18.38.38,0,0,1,.14-.52l2.28-1.31a.37.37,0,0,1,.51.13.39.39,0,0,1-.14.52l-2.28,1.31A.32.32,0,0,1,104.09,220.59Zm4.56-2.63a.37.37,0,0,1-.18-.7l2.28-1.32a.38.38,0,0,1,.51.14.37.37,0,0,1-.14.51l-2.28,1.32A.41.41,0,0,1,108.65,218Z" style="fill:#EBA5BE"></path><path d="M73.37,238.33a.38.38,0,0,1-.33-.18.39.39,0,0,1,.14-.52l1.08-.62a.39.39,0,0,1,.52.14.37.37,0,0,1-.14.51l-1.08.62A.34.34,0,0,1,73.37,238.33Z" style="fill:#EBA5BE"></path><path d="M116,174.62a.37.37,0,0,1-.37-.38V173a.36.36,0,0,1,.37-.37.37.37,0,0,1,.38.37v1.25A.38.38,0,0,1,116,174.62Z" style="fill:#EBA5BE"></path><path d="M116,208.17a.38.38,0,0,1-.37-.37v-2.4a.38.38,0,1,1,.75,0v2.4A.38.38,0,0,1,116,208.17Zm0-4.79a.38.38,0,0,1-.37-.38v-2.39a.38.38,0,1,1,.75,0V203A.38.38,0,0,1,116,203.38Zm0-4.8a.37.37,0,0,1-.37-.37v-2.4a.38.38,0,0,1,.75,0v2.4A.37.37,0,0,1,116,198.58Zm0-4.79a.38.38,0,0,1-.37-.37V191a.37.37,0,0,1,.37-.38.38.38,0,0,1,.38.38v2.4A.38.38,0,0,1,116,193.79Zm0-4.79a.37.37,0,0,1-.37-.38v-2.39a.37.37,0,0,1,.37-.38.38.38,0,0,1,.38.38v2.39A.38.38,0,0,1,116,189Zm0-4.8a.36.36,0,0,1-.37-.37v-2.4a.36.36,0,0,1,.37-.37.37.37,0,0,1,.38.37v2.4A.37.37,0,0,1,116,184.2Zm0-4.79a.37.37,0,0,1-.37-.37v-2.4a.37.37,0,0,1,.37-.38.38.38,0,0,1,.38.38V179A.38.38,0,0,1,116,179.41Z" style="fill:#EBA5BE"></path><path d="M116,211.82a.38.38,0,0,1-.37-.38v-1.25a.38.38,0,0,1,.75,0v1.25A.38.38,0,0,1,116,211.82Z" style="fill:#EBA5BE"></path><path d="M114.3,174.33a.41.41,0,0,1-.19-.05.37.37,0,0,1-.19-.33v-3.84a.37.37,0,0,1,.19-.33l3.33-1.92a.37.37,0,0,1,.38,0,.38.38,0,0,1,.18.32V172a.37.37,0,0,1-.18.32l-3.34,1.93A.37.37,0,0,1,114.3,174.33Zm.37-4v3l2.58-1.49v-3Z" style="fill:#EBA5BE"></path><path d="M114.3,216.63a.41.41,0,0,1-.19,0,.39.39,0,0,1-.19-.33V212.4a.37.37,0,0,1,.19-.32l3.33-1.92a.37.37,0,0,1,.56.32v3.85a.37.37,0,0,1-.18.32l-3.34,1.93A.37.37,0,0,1,114.3,216.63Zm.37-4v3l2.58-1.49v-3Z" style="fill:#EBA5BE"></path><path d="M70,199.88a.32.32,0,0,1-.19,0,.37.37,0,0,1-.19-.32v-3.85a.36.36,0,0,1,.19-.32l3.33-1.93a.42.42,0,0,1,.38,0,.39.39,0,0,1,.18.33v3.84a.39.39,0,0,1-.18.33l-3.34,1.92A.29.29,0,0,1,70,199.88Zm.37-4v3L73,197.37v-3Z" style="fill:#EBA5BE"></path><path d="M70,242.18a.41.41,0,0,1-.19-.05.37.37,0,0,1-.19-.32V238a.37.37,0,0,1,.19-.33l3.33-1.92a.37.37,0,0,1,.38,0,.38.38,0,0,1,.18.32v3.85a.39.39,0,0,1-.18.33l-3.34,1.92A.37.37,0,0,1,70,242.18Zm.37-4v3l2.58-1.5v-3Z" style="fill:#EBA5BE"></path><path d="M117.64,193.62a4,4,0,0,1-1.68,3.2c-.92.54-1.68,0-1.68-1.27a4,4,0,0,1,1.68-3.2C116.89,191.81,117.64,192.38,117.64,193.62Z" style="fill:#EBA5BE"></path><path d="M95.49,182.88a4,4,0,0,1-1.67,3.2c-.93.54-1.68,0-1.68-1.27a4,4,0,0,1,1.68-3.2C94.74,181.07,95.49,181.64,95.49,182.88Z" style="fill:#EBA5BE"></path><path d="M95.49,225.17a4,4,0,0,1-1.67,3.21c-.93.53-1.68,0-1.68-1.27a4,4,0,0,1,1.68-3.2C94.74,223.37,95.49,223.94,95.49,225.17Z" style="fill:#EBA5BE"></path><path d="M73.38,219.23a4,4,0,0,1-1.68,3.2c-.93.54-1.68,0-1.68-1.26A4,4,0,0,1,71.7,218C72.63,217.43,73.38,218,73.38,219.23Z" style="fill:#EBA5BE"></path></g><g id="freepik--Video--inject-3"><path d="M77.51,287l32.23-18.6a4.8,4.8,0,0,0,2.16-3.75V236.85c0-1.38-1-1.94-2.17-1.25L77.51,254.21A4.78,4.78,0,0,0,75.34,258v27.83C75.34,287.18,76.31,287.73,77.51,287Z" style="fill:#fafafa"></path><path d="M76.54,287.84a1.6,1.6,0,0,1-.81-.21,2,2,0,0,1-.89-1.84V258a5.25,5.25,0,0,1,2.42-4.18l32.22-18.61a2,2,0,0,1,2-.15,2,2,0,0,1,.88,1.83v27.84a5.25,5.25,0,0,1-2.42,4.18L77.76,287.48A2.5,2.5,0,0,1,76.54,287.84Zm34.16-52a1.54,1.54,0,0,0-.72.23l-32.22,18.6A4.31,4.31,0,0,0,75.84,258v27.83a1.06,1.06,0,0,0,.39,1,1.07,1.07,0,0,0,1-.15L109.48,268a4.27,4.27,0,0,0,1.92-3.31V236.85a1.07,1.07,0,0,0-.38-1A.57.57,0,0,0,110.7,235.81Z" style="fill:#e0e0e0"></path><path d="M93.62,254.29a13.48,13.48,0,0,0-6.09,10.55c0,3.89,2.73,5.46,6.09,3.52a13.45,13.45,0,0,0,6.09-10.55C99.71,253.92,97,252.35,93.62,254.29Zm3.19,5.7-4.55,5.43c-.44.53-.8.4-.8-.29V260a1.2,1.2,0,0,1,1.25-1.2l3.65.15C97.05,259,97.25,259.46,96.81,260Z" style="fill:#EBA5BE"></path><path d="M73.37,252.22A.39.39,0,0,1,73,252a.37.37,0,0,1,.14-.51l1.08-.62a.38.38,0,1,1,.38.65l-1.08.62A.45.45,0,0,1,73.37,252.22Z" style="fill:#EBA5BE"></path><path d="M76.73,250.28a.39.39,0,0,1-.33-.19.37.37,0,0,1,.14-.51l2.28-1.32a.38.38,0,0,1,.38.65l-2.28,1.32A.45.45,0,0,1,76.73,250.28Zm4.56-2.63a.39.39,0,0,1-.33-.19.37.37,0,0,1,.14-.51l2.28-1.32a.38.38,0,0,1,.51.14.37.37,0,0,1-.14.51l-2.28,1.32A.41.41,0,0,1,81.29,247.65ZM85.84,245a.37.37,0,0,1-.18-.7L87.93,243a.39.39,0,0,1,.52.14.37.37,0,0,1-.14.51L86,245A.41.41,0,0,1,85.84,245Zm4.56-2.63a.39.39,0,0,1-.33-.19.37.37,0,0,1,.14-.51l2.28-1.32a.38.38,0,0,1,.38.65l-2.28,1.32A.45.45,0,0,1,90.4,242.39ZM95,239.76a.38.38,0,0,1-.32-.19.37.37,0,0,1,.14-.51l2.28-1.32a.38.38,0,0,1,.51.14.37.37,0,0,1-.14.51l-2.28,1.32A.41.41,0,0,1,95,239.76Zm4.56-2.63a.37.37,0,0,1-.32-.19.36.36,0,0,1,.13-.51l2.28-1.32a.39.39,0,0,1,.52.14.37.37,0,0,1-.14.51l-2.28,1.32A.41.41,0,0,1,99.51,237.13Zm4.56-2.63a.39.39,0,0,1-.33-.19.37.37,0,0,1,.14-.51l2.28-1.32a.37.37,0,0,1,.51.14.37.37,0,0,1-.14.51l-2.27,1.32A.45.45,0,0,1,104.07,234.5Zm4.55-2.64a.37.37,0,0,1-.32-.18.39.39,0,0,1,.14-.52l2.28-1.31a.38.38,0,0,1,.51.14.37.37,0,0,1-.14.51l-2.28,1.32A.41.41,0,0,1,108.62,231.86Z" style="fill:#EBA5BE"></path><path d="M113.18,229.23a.36.36,0,0,1-.32-.18.38.38,0,0,1,.13-.52l1.09-.62a.37.37,0,1,1,.37.65l-1.08.62A.32.32,0,0,1,113.18,229.23Z" style="fill:#EBA5BE"></path><path d="M71.7,293.56a.38.38,0,0,1-.37-.38v-1.25a.38.38,0,0,1,.75,0v1.25A.38.38,0,0,1,71.7,293.56Z" style="fill:#EBA5BE"></path><path d="M71.7,289.91a.38.38,0,0,1-.37-.37v-2.4a.38.38,0,1,1,.75,0v2.4A.38.38,0,0,1,71.7,289.91Zm0-4.79a.38.38,0,0,1-.37-.38v-2.39a.38.38,0,1,1,.75,0v2.39A.38.38,0,0,1,71.7,285.12Zm0-4.8a.37.37,0,0,1-.37-.37v-2.4a.38.38,0,0,1,.75,0V280A.37.37,0,0,1,71.7,280.32Zm0-4.79a.38.38,0,0,1-.37-.38v-2.39a.37.37,0,0,1,.37-.38.38.38,0,0,1,.38.38v2.39A.38.38,0,0,1,71.7,275.53Zm0-4.79a.37.37,0,0,1-.37-.38V268a.37.37,0,0,1,.37-.37.38.38,0,0,1,.38.37v2.4A.38.38,0,0,1,71.7,270.74Zm0-4.8a.37.37,0,0,1-.37-.37v-2.4a.36.36,0,0,1,.37-.37.37.37,0,0,1,.38.37v2.4A.38.38,0,0,1,71.7,265.94Zm0-4.79a.37.37,0,0,1-.37-.38v-2.39a.37.37,0,0,1,.37-.38.38.38,0,0,1,.38.38v2.39A.38.38,0,0,1,71.7,261.15Z" style="fill:#EBA5BE"></path><path d="M71.7,256.35a.36.36,0,0,1-.37-.37v-1.25a.37.37,0,0,1,.37-.38.38.38,0,0,1,.38.38V256A.37.37,0,0,1,71.7,256.35Z" style="fill:#EBA5BE"></path><path d="M113.21,271.51a.36.36,0,0,1-.32-.18.38.38,0,0,1,.14-.52l1.08-.62a.37.37,0,0,1,.51.14.37.37,0,0,1-.14.51l-1.08.62A.32.32,0,0,1,113.21,271.51Z" style="fill:#EBA5BE"></path><path d="M76.73,292.58a.37.37,0,0,1-.32-.19.36.36,0,0,1,.13-.51l2.28-1.32a.39.39,0,0,1,.52.14.37.37,0,0,1-.14.51l-2.28,1.32A.41.41,0,0,1,76.73,292.58Zm4.56-2.64a.36.36,0,0,1-.32-.18.38.38,0,0,1,.13-.52l2.28-1.31a.39.39,0,0,1,.52.14.38.38,0,0,1-.14.51l-2.28,1.31A.32.32,0,0,1,81.29,289.94Zm4.56-2.63a.37.37,0,0,1-.32-.19.36.36,0,0,1,.13-.51l2.28-1.32a.39.39,0,0,1,.52.14.37.37,0,0,1-.14.51L86,287.26A.45.45,0,0,1,85.85,287.31Zm4.56-2.63a.37.37,0,0,1-.32-.19.36.36,0,0,1,.13-.51l2.28-1.32a.39.39,0,0,1,.52.14.37.37,0,0,1-.14.51l-2.28,1.32A.41.41,0,0,1,90.41,284.68ZM95,282a.36.36,0,0,1-.32-.18.39.39,0,0,1,.13-.52L97.07,280a.37.37,0,0,1,.51.14.38.38,0,0,1-.14.51L95.16,282A.32.32,0,0,1,95,282Zm4.56-2.63a.37.37,0,0,1-.18-.7l2.27-1.31a.38.38,0,1,1,.38.65l-2.28,1.31A.32.32,0,0,1,99.53,279.41Zm4.56-2.63a.37.37,0,0,1-.18-.7l2.28-1.32a.38.38,0,0,1,.51.14.37.37,0,0,1-.14.51l-2.28,1.32A.41.41,0,0,1,104.09,276.78Zm4.56-2.63a.37.37,0,0,1-.18-.7l2.28-1.32a.38.38,0,0,1,.51.14.37.37,0,0,1-.14.51l-2.28,1.32A.41.41,0,0,1,108.65,274.15Z" style="fill:#EBA5BE"></path><path d="M73.37,294.52a.39.39,0,0,1-.33-.19.37.37,0,0,1,.14-.51l1.08-.63a.39.39,0,0,1,.52.14.37.37,0,0,1-.14.51l-1.08.63A.45.45,0,0,1,73.37,294.52Z" style="fill:#EBA5BE"></path><path d="M116,230.8a.37.37,0,0,1-.37-.37v-1.25a.37.37,0,0,1,.37-.38.38.38,0,0,1,.38.38v1.25A.38.38,0,0,1,116,230.8Z" style="fill:#EBA5BE"></path><path d="M116,264.36a.38.38,0,0,1-.37-.38v-2.4a.38.38,0,0,1,.75,0V264A.38.38,0,0,1,116,264.36Zm0-4.8a.38.38,0,0,1-.37-.37v-2.4a.38.38,0,0,1,.75,0v2.4A.38.38,0,0,1,116,259.56Zm0-4.79a.38.38,0,0,1-.37-.38V252a.38.38,0,1,1,.75,0v2.39A.38.38,0,0,1,116,254.77Zm0-4.79a.38.38,0,0,1-.37-.38v-2.4a.37.37,0,0,1,.37-.37.38.38,0,0,1,.38.37v2.4A.38.38,0,0,1,116,250Zm0-4.8a.37.37,0,0,1-.37-.37v-2.4A.37.37,0,0,1,116,242a.38.38,0,0,1,.38.38v2.4A.38.38,0,0,1,116,245.18Zm0-4.79a.37.37,0,0,1-.37-.38v-2.39a.37.37,0,0,1,.37-.38.38.38,0,0,1,.38.38V240A.38.38,0,0,1,116,240.39Zm0-4.8a.36.36,0,0,1-.37-.37v-2.4a.37.37,0,0,1,.37-.37.38.38,0,0,1,.38.37v2.4A.37.37,0,0,1,116,235.59Z" style="fill:#EBA5BE"></path><path d="M116,268a.38.38,0,0,1-.37-.37v-1.25a.38.38,0,1,1,.75,0v1.25A.38.38,0,0,1,116,268Z" style="fill:#EBA5BE"></path><path d="M114.3,230.51a.32.32,0,0,1-.19,0,.36.36,0,0,1-.19-.32v-3.85a.36.36,0,0,1,.19-.32l3.33-1.93a.42.42,0,0,1,.38,0,.39.39,0,0,1,.18.33v3.85a.38.38,0,0,1-.18.32l-3.34,1.92A.29.29,0,0,1,114.3,230.51Zm.37-4v3l2.58-1.49v-3Z" style="fill:#EBA5BE"></path><path d="M114.3,272.81a.41.41,0,0,1-.19-.05.37.37,0,0,1-.19-.32v-3.85a.39.39,0,0,1,.19-.33l3.33-1.92a.37.37,0,0,1,.38,0,.39.39,0,0,1,.18.33v3.84a.39.39,0,0,1-.18.33l-3.34,1.92A.37.37,0,0,1,114.3,272.81Zm.37-4v3l2.58-1.49v-3Z" style="fill:#EBA5BE"></path><path d="M70,256.07a.41.41,0,0,1-.19-.05.37.37,0,0,1-.19-.33v-3.84a.37.37,0,0,1,.19-.33l3.33-1.92a.37.37,0,0,1,.56.32v3.85a.37.37,0,0,1-.18.32L70.22,256A.37.37,0,0,1,70,256.07Zm.37-4v3L73,253.55v-3Z" style="fill:#EBA5BE"></path><path d="M70,298.36a.41.41,0,0,1-.19,0,.39.39,0,0,1-.19-.33v-3.85a.37.37,0,0,1,.19-.32l3.33-1.92a.37.37,0,0,1,.56.32v3.85a.38.38,0,0,1-.18.32l-3.34,1.93A.37.37,0,0,1,70,298.36Zm.37-4v3L73,295.85v-3Z" style="fill:#EBA5BE"></path><path d="M117.64,249.8A4,4,0,0,1,116,253c-.92.53-1.68,0-1.68-1.27a4,4,0,0,1,1.68-3.21C116.89,248,117.64,248.57,117.64,249.8Z" style="fill:#EBA5BE"></path><path d="M95.49,239.06a4,4,0,0,1-1.67,3.21c-.93.53-1.68,0-1.68-1.27a4,4,0,0,1,1.68-3.21C94.74,237.26,95.49,237.83,95.49,239.06Z" style="fill:#EBA5BE"></path><path d="M95.49,281.36a4,4,0,0,1-1.67,3.2c-.93.54-1.68,0-1.68-1.26a4,4,0,0,1,1.68-3.21C94.74,279.56,95.49,280.12,95.49,281.36Z" style="fill:#EBA5BE"></path><path d="M73.38,275.41a4,4,0,0,1-1.68,3.21c-.93.53-1.68,0-1.68-1.27a4,4,0,0,1,1.68-3.2C72.63,273.61,73.38,274.18,73.38,275.41Z" style="fill:#EBA5BE"></path></g><g id="freepik--Image--inject-3"><path d="M77.51,343.23l32.23-18.61a4.8,4.8,0,0,0,2.16-3.75V293c0-1.38-1-1.94-2.17-1.25L77.51,310.4a4.78,4.78,0,0,0-2.17,3.75V342C75.34,343.36,76.31,343.92,77.51,343.23Z" style="fill:#fafafa"></path><path d="M76.54,344a1.52,1.52,0,0,1-.81-.22,2,2,0,0,1-.89-1.83V314.15A5.27,5.27,0,0,1,77.26,310l32.22-18.6a2,2,0,0,1,2-.16,2,2,0,0,1,.88,1.84v27.83a5.27,5.27,0,0,1-2.42,4.19l-32.22,18.6A2.52,2.52,0,0,1,76.54,344Zm34.16-52a1.54,1.54,0,0,0-.72.23L77.76,310.83a4.31,4.31,0,0,0-1.92,3.32V342a1.07,1.07,0,0,0,.39,1,1.1,1.1,0,0,0,1-.15l32.22-18.61a4.31,4.31,0,0,0,1.92-3.32V293a1.08,1.08,0,0,0-.38-1A.66.66,0,0,0,110.7,292Z" style="fill:#e0e0e0"></path><polygon points="79.47 337.61 108.17 321.04 102.68 311.27 99.5 318.88 100.69 321.79 90.72 311.27 79.47 337.61" style="fill:#EBA5BE"></polygon><path d="M99.46,304.41a5.37,5.37,0,0,0-2.42,4.2c0,1.54,1.09,2.17,2.42,1.39a5.35,5.35,0,0,0,2.43-4.19C101.89,304.27,100.8,303.64,99.46,304.41Z" style="fill:#EBA5BE;opacity:0.9"></path><path d="M73.37,308.4a.38.38,0,0,1-.33-.18.39.39,0,0,1,.14-.52l1.08-.62a.39.39,0,0,1,.52.14.37.37,0,0,1-.14.51l-1.08.62A.34.34,0,0,1,73.37,308.4Z" style="fill:#EBA5BE"></path><path d="M76.73,306.46a.38.38,0,0,1-.33-.18.39.39,0,0,1,.14-.52l2.28-1.31a.38.38,0,0,1,.38.65l-2.28,1.31A.34.34,0,0,1,76.73,306.46Zm4.56-2.63a.38.38,0,0,1-.33-.18.39.39,0,0,1,.14-.52l2.28-1.31a.37.37,0,0,1,.37.65l-2.28,1.31A.31.31,0,0,1,81.29,303.83Zm4.55-2.63a.36.36,0,0,1-.32-.18.38.38,0,0,1,.14-.52l2.27-1.31a.4.4,0,0,1,.52.13.39.39,0,0,1-.14.52L86,301.15A.32.32,0,0,1,85.84,301.2Zm4.56-2.63a.39.39,0,0,1-.33-.19.38.38,0,0,1,.14-.51l2.28-1.31a.38.38,0,0,1,.51.13.39.39,0,0,1-.13.52l-2.28,1.31A.34.34,0,0,1,90.4,298.57ZM95,295.94a.38.38,0,0,1-.32-.19.38.38,0,0,1,.14-.51l2.28-1.31a.37.37,0,1,1,.37.65l-2.28,1.31A.32.32,0,0,1,95,295.94Zm4.56-2.63a.37.37,0,0,1-.32-.19.36.36,0,0,1,.13-.51l2.28-1.31a.38.38,0,1,1,.38.65l-2.28,1.31A.41.41,0,0,1,99.51,293.31Zm4.56-2.63a.39.39,0,0,1-.33-.19.37.37,0,0,1,.14-.51l2.28-1.32a.38.38,0,0,1,.51.14.38.38,0,0,1-.14.52l-2.27,1.31A.45.45,0,0,1,104.07,290.68Zm4.55-2.63a.38.38,0,0,1-.32-.19.37.37,0,0,1,.14-.51l2.28-1.32a.38.38,0,0,1,.51.14.37.37,0,0,1-.14.51L108.81,288A.41.41,0,0,1,108.62,288.05Z" style="fill:#EBA5BE"></path><path d="M113.18,285.42a.37.37,0,0,1-.32-.19.36.36,0,0,1,.13-.51l1.09-.63a.38.38,0,0,1,.51.14.37.37,0,0,1-.14.51l-1.08.63A.41.41,0,0,1,113.18,285.42Z" style="fill:#EBA5BE"></path><path d="M71.7,349.74a.38.38,0,0,1-.37-.37v-1.25a.38.38,0,1,1,.75,0v1.25A.38.38,0,0,1,71.7,349.74Z" style="fill:#EBA5BE"></path><path d="M71.7,346.1a.38.38,0,0,1-.37-.38v-2.4a.38.38,0,0,1,.75,0v2.4A.38.38,0,0,1,71.7,346.1Zm0-4.8a.38.38,0,0,1-.37-.37v-2.4a.38.38,0,1,1,.75,0v2.4A.38.38,0,0,1,71.7,341.3Zm0-4.79a.38.38,0,0,1-.37-.38v-2.39a.38.38,0,1,1,.75,0v2.39A.38.38,0,0,1,71.7,336.51Zm0-4.8a.37.37,0,0,1-.37-.37v-2.4a.37.37,0,0,1,.37-.37.38.38,0,0,1,.38.37v2.4A.37.37,0,0,1,71.7,331.71Zm0-4.79a.37.37,0,0,1-.37-.37v-2.4a.37.37,0,0,1,.37-.38.38.38,0,0,1,.38.38v2.4A.38.38,0,0,1,71.7,326.92Zm0-4.79a.37.37,0,0,1-.37-.38v-2.4a.37.37,0,0,1,.37-.37.38.38,0,0,1,.38.37v2.4A.38.38,0,0,1,71.7,322.13Zm0-4.8a.36.36,0,0,1-.37-.37v-2.4a.36.36,0,0,1,.37-.37.37.37,0,0,1,.38.37V317A.37.37,0,0,1,71.7,317.33Z" style="fill:#EBA5BE"></path><path d="M71.7,312.54a.37.37,0,0,1-.37-.37v-1.25a.37.37,0,0,1,.37-.38.38.38,0,0,1,.38.38v1.25A.38.38,0,0,1,71.7,312.54Z" style="fill:#EBA5BE"></path><path d="M113.21,327.7a.37.37,0,0,1-.18-.7l1.08-.63a.37.37,0,0,1,.51.14.37.37,0,0,1-.14.51l-1.08.63A.41.41,0,0,1,113.21,327.7Z" style="fill:#EBA5BE"></path><path d="M76.73,348.76a.37.37,0,0,1-.32-.19.37.37,0,0,1,.13-.51l2.28-1.32a.38.38,0,1,1,.38.66l-2.28,1.31A.41.41,0,0,1,76.73,348.76Zm4.56-2.63a.37.37,0,0,1-.32-.19.36.36,0,0,1,.13-.51l2.28-1.32a.39.39,0,0,1,.52.14.37.37,0,0,1-.14.51l-2.28,1.32A.45.45,0,0,1,81.29,346.13Zm4.56-2.63a.37.37,0,0,1-.32-.19.36.36,0,0,1,.13-.51l2.28-1.32a.39.39,0,0,1,.52.14.37.37,0,0,1-.14.51L86,343.45A.41.41,0,0,1,85.85,343.5Zm4.56-2.64a.36.36,0,0,1-.32-.18.38.38,0,0,1,.13-.52l2.28-1.31a.37.37,0,1,1,.38.64l-2.28,1.32A.32.32,0,0,1,90.41,340.86ZM95,338.23a.38.38,0,0,1-.19-.7l2.29-1.32a.38.38,0,0,1,.51.14.37.37,0,0,1-.14.51l-2.28,1.32A.41.41,0,0,1,95,338.23Zm4.56-2.63a.37.37,0,0,1-.18-.7l2.27-1.32a.39.39,0,0,1,.52.14.37.37,0,0,1-.14.51l-2.28,1.32A.41.41,0,0,1,99.53,335.6Zm4.56-2.64a.36.36,0,0,1-.32-.18.38.38,0,0,1,.14-.52l2.28-1.31a.38.38,0,0,1,.51.13.39.39,0,0,1-.14.52l-2.28,1.31A.32.32,0,0,1,104.09,333Zm4.56-2.63a.37.37,0,0,1-.18-.7l2.28-1.32a.38.38,0,0,1,.51.14.37.37,0,0,1-.14.51l-2.28,1.32A.41.41,0,0,1,108.65,330.33Z" style="fill:#EBA5BE"></path><path d="M73.37,350.7a.38.38,0,0,1-.33-.18.39.39,0,0,1,.14-.52l1.08-.62a.39.39,0,0,1,.52.14.38.38,0,0,1-.14.51l-1.08.62A.34.34,0,0,1,73.37,350.7Z" style="fill:#EBA5BE"></path><path d="M116,287a.37.37,0,0,1-.37-.38v-1.25A.36.36,0,0,1,116,285a.37.37,0,0,1,.38.37v1.25A.38.38,0,0,1,116,287Z" style="fill:#EBA5BE"></path><path d="M116,320.54a.38.38,0,0,1-.37-.37v-2.4a.38.38,0,1,1,.75,0v2.4A.38.38,0,0,1,116,320.54Zm0-4.79a.38.38,0,0,1-.37-.38V313a.38.38,0,1,1,.75,0v2.39A.38.38,0,0,1,116,315.75Zm0-4.8a.37.37,0,0,1-.37-.37v-2.4a.38.38,0,0,1,.75,0v2.4A.37.37,0,0,1,116,311Zm0-4.79a.38.38,0,0,1-.37-.37v-2.4A.37.37,0,0,1,116,303a.38.38,0,0,1,.38.38v2.4A.38.38,0,0,1,116,306.16Zm0-4.79a.37.37,0,0,1-.37-.38V298.6a.37.37,0,0,1,.37-.38.38.38,0,0,1,.38.38V301A.38.38,0,0,1,116,301.37Zm0-4.8a.36.36,0,0,1-.37-.37v-2.4a.37.37,0,0,1,.37-.37.38.38,0,0,1,.38.37v2.4A.37.37,0,0,1,116,296.57Zm0-4.79a.37.37,0,0,1-.37-.38V289a.37.37,0,0,1,.37-.38.38.38,0,0,1,.38.38v2.39A.38.38,0,0,1,116,291.78Z" style="fill:#EBA5BE"></path><path d="M116,324.19a.38.38,0,0,1-.37-.38v-1.25a.38.38,0,0,1,.75,0v1.25A.38.38,0,0,1,116,324.19Z" style="fill:#EBA5BE"></path><path d="M114.3,286.7a.41.41,0,0,1-.19-.05.37.37,0,0,1-.19-.33v-3.84a.37.37,0,0,1,.19-.33l3.33-1.92a.37.37,0,0,1,.38,0,.38.38,0,0,1,.18.32v3.85a.4.4,0,0,1-.18.33l-3.34,1.92A.37.37,0,0,1,114.3,286.7Zm.37-4v3l2.58-1.49v-3Z" style="fill:#EBA5BE"></path><path d="M114.3,329a.41.41,0,0,1-.19-.05.39.39,0,0,1-.19-.33v-3.85a.37.37,0,0,1,.19-.32l3.33-1.92a.37.37,0,0,1,.56.32v3.85a.37.37,0,0,1-.18.32L114.48,329A.37.37,0,0,1,114.3,329Zm.37-4v3l2.58-1.49v-3Z" style="fill:#EBA5BE"></path><path d="M70,312.25a.41.41,0,0,1-.19-.05.37.37,0,0,1-.19-.32V308a.39.39,0,0,1,.19-.33l3.33-1.92a.42.42,0,0,1,.38,0,.39.39,0,0,1,.18.33V310a.39.39,0,0,1-.18.33l-3.34,1.92A.37.37,0,0,1,70,312.25Zm.37-4v3L73,309.74v-3Z" style="fill:#EBA5BE"></path><path d="M70,354.55a.41.41,0,0,1-.19-.05.37.37,0,0,1-.19-.33v-3.84a.37.37,0,0,1,.19-.33l3.33-1.92a.37.37,0,0,1,.38,0,.38.38,0,0,1,.18.32v3.85a.39.39,0,0,1-.18.33l-3.34,1.92A.37.37,0,0,1,70,354.55Zm.37-4v3L73,352v-3Z" style="fill:#EBA5BE"></path><path d="M117.64,306a4,4,0,0,1-1.68,3.2c-.92.54-1.68,0-1.68-1.27a4,4,0,0,1,1.68-3.2C116.89,304.18,117.64,304.75,117.64,306Z" style="fill:#EBA5BE"></path><path d="M95.49,295.25a4,4,0,0,1-1.67,3.2c-.93.54-1.68,0-1.68-1.27a4,4,0,0,1,1.68-3.2C94.74,293.44,95.49,294,95.49,295.25Z" style="fill:#EBA5BE"></path><path d="M95.49,337.54a4,4,0,0,1-1.67,3.21c-.93.53-1.68,0-1.68-1.27a4,4,0,0,1,1.68-3.2C94.74,335.74,95.49,336.31,95.49,337.54Z" style="fill:#EBA5BE"></path><path d="M73.38,331.6a4,4,0,0,1-1.68,3.2c-.93.54-1.68,0-1.68-1.26a4,4,0,0,1,1.68-3.21C72.63,329.8,73.38,330.36,73.38,331.6Z" style="fill:#EBA5BE"></path></g><g id="freepik--Gear--inject-3"><path d="M77.51,399.41l32.23-18.6a4.8,4.8,0,0,0,2.16-3.75V349.22c0-1.38-1-1.94-2.17-1.25L77.51,366.58a4.78,4.78,0,0,0-2.17,3.75v27.83C75.34,399.55,76.31,400.1,77.51,399.41Z" style="fill:#fafafa"></path><path d="M76.54,400.21a1.6,1.6,0,0,1-.81-.21,2,2,0,0,1-.89-1.84V370.33a5.25,5.25,0,0,1,2.42-4.18l32.22-18.61a2,2,0,0,1,2-.15,2,2,0,0,1,.88,1.83v27.84a5.25,5.25,0,0,1-2.42,4.18L77.76,399.85A2.5,2.5,0,0,1,76.54,400.21Zm34.16-52a1.54,1.54,0,0,0-.72.23L77.76,367a4.31,4.31,0,0,0-1.92,3.32v27.83a1.06,1.06,0,0,0,.39,1,1.07,1.07,0,0,0,1-.15l32.22-18.61a4.27,4.27,0,0,0,1.92-3.31V349.22a1.07,1.07,0,0,0-.38-1A.57.57,0,0,0,110.7,348.18Z" style="fill:#e0e0e0"></path><path d="M73.37,364.59a.39.39,0,0,1-.33-.19.37.37,0,0,1,.14-.51l1.08-.62a.38.38,0,1,1,.38.65l-1.08.62A.45.45,0,0,1,73.37,364.59Z" style="fill:#EBA5BE"></path><path d="M76.73,362.65a.39.39,0,0,1-.33-.19.37.37,0,0,1,.14-.51l2.28-1.32a.38.38,0,0,1,.38.65l-2.28,1.32A.45.45,0,0,1,76.73,362.65ZM81.29,360a.39.39,0,0,1-.33-.19.37.37,0,0,1,.14-.51L83.38,358a.38.38,0,0,1,.51.14.37.37,0,0,1-.14.51L81.47,360A.41.41,0,0,1,81.29,360Zm4.55-2.63a.37.37,0,0,1-.18-.7l2.27-1.32a.39.39,0,0,1,.52.14.37.37,0,0,1-.14.51L86,357.34A.41.41,0,0,1,85.84,357.39Zm4.56-2.63a.39.39,0,0,1-.33-.19.37.37,0,0,1,.14-.51l2.28-1.32a.37.37,0,0,1,.51.14.37.37,0,0,1-.14.51l-2.27,1.32A.45.45,0,0,1,90.4,354.76ZM95,352.13a.38.38,0,0,1-.32-.19.37.37,0,0,1,.14-.51l2.28-1.32a.38.38,0,0,1,.51.14.37.37,0,0,1-.14.51l-2.28,1.32A.41.41,0,0,1,95,352.13Zm4.56-2.63a.37.37,0,0,1-.32-.19.36.36,0,0,1,.13-.51l2.28-1.32a.39.39,0,0,1,.52.14.37.37,0,0,1-.14.51l-2.28,1.32A.41.41,0,0,1,99.51,349.5Zm4.56-2.64a.38.38,0,0,1-.33-.18.39.39,0,0,1,.14-.52l2.28-1.31a.38.38,0,0,1,.51.14.37.37,0,0,1-.14.51l-2.27,1.32A.43.43,0,0,1,104.07,346.86Zm4.55-2.63a.37.37,0,0,1-.32-.18.39.39,0,0,1,.14-.52l2.28-1.31a.38.38,0,0,1,.51.14.37.37,0,0,1-.14.51l-2.28,1.31A.32.32,0,0,1,108.62,344.23Z" style="fill:#EBA5BE"></path><path d="M113.18,341.6a.36.36,0,0,1-.32-.18.38.38,0,0,1,.13-.52l1.09-.62a.37.37,0,1,1,.37.65l-1.08.62A.32.32,0,0,1,113.18,341.6Z" style="fill:#EBA5BE"></path><path d="M71.7,405.93a.38.38,0,0,1-.37-.38V404.3a.38.38,0,0,1,.75,0v1.25A.38.38,0,0,1,71.7,405.93Z" style="fill:#EBA5BE"></path><path d="M71.7,402.28a.38.38,0,0,1-.37-.37v-2.4a.38.38,0,1,1,.75,0v2.4A.38.38,0,0,1,71.7,402.28Zm0-4.79a.38.38,0,0,1-.37-.38v-2.39a.38.38,0,1,1,.75,0v2.39A.38.38,0,0,1,71.7,397.49Zm0-4.8a.37.37,0,0,1-.37-.37v-2.4a.38.38,0,0,1,.75,0v2.4A.37.37,0,0,1,71.7,392.69Zm0-4.79a.38.38,0,0,1-.37-.38v-2.39a.37.37,0,0,1,.37-.38.38.38,0,0,1,.38.38v2.39A.38.38,0,0,1,71.7,387.9Zm0-4.79a.37.37,0,0,1-.37-.38v-2.4a.37.37,0,0,1,.37-.37.38.38,0,0,1,.38.37v2.4A.38.38,0,0,1,71.7,383.11Zm0-4.8a.36.36,0,0,1-.37-.37v-2.4a.36.36,0,0,1,.37-.37.37.37,0,0,1,.38.37v2.4A.37.37,0,0,1,71.7,378.31Zm0-4.79a.37.37,0,0,1-.37-.38v-2.39a.37.37,0,0,1,.37-.38.38.38,0,0,1,.38.38v2.39A.38.38,0,0,1,71.7,373.52Z" style="fill:#EBA5BE"></path><path d="M71.7,368.73a.37.37,0,0,1-.37-.38V367.1a.36.36,0,0,1,.37-.37.37.37,0,0,1,.38.37v1.25A.38.38,0,0,1,71.7,368.73Z" style="fill:#EBA5BE"></path><path d="M113.21,383.88a.36.36,0,0,1-.32-.18.38.38,0,0,1,.14-.52l1.08-.62a.37.37,0,0,1,.51.14.37.37,0,0,1-.14.51l-1.08.62A.32.32,0,0,1,113.21,383.88Z" style="fill:#EBA5BE"></path><path d="M76.73,405a.37.37,0,0,1-.32-.19.36.36,0,0,1,.13-.51l2.28-1.32a.39.39,0,0,1,.52.14.37.37,0,0,1-.14.51l-2.28,1.32A.41.41,0,0,1,76.73,405Zm4.56-2.64a.36.36,0,0,1-.32-.18.38.38,0,0,1,.13-.52l2.28-1.31a.38.38,0,1,1,.38.65l-2.28,1.31A.34.34,0,0,1,81.29,402.31Zm4.56-2.63a.37.37,0,0,1-.32-.19.36.36,0,0,1,.13-.51l2.28-1.32a.4.4,0,0,1,.52.14.39.39,0,0,1-.14.52L86,399.63A.41.41,0,0,1,85.85,399.68Zm4.56-2.63a.37.37,0,0,1-.32-.19.36.36,0,0,1,.13-.51L92.5,395a.39.39,0,0,1,.52.14.37.37,0,0,1-.14.51L90.6,397A.41.41,0,0,1,90.41,397.05ZM95,394.41a.36.36,0,0,1-.32-.18.39.39,0,0,1,.13-.52l2.29-1.31a.37.37,0,1,1,.37.65l-2.28,1.31A.32.32,0,0,1,95,394.41Zm4.56-2.63a.37.37,0,0,1-.18-.7l2.27-1.31a.38.38,0,0,1,.52.13.39.39,0,0,1-.14.52l-2.28,1.31A.32.32,0,0,1,99.53,391.78Zm4.56-2.63a.37.37,0,0,1-.18-.7l2.28-1.32a.38.38,0,0,1,.51.14.37.37,0,0,1-.14.51l-2.28,1.32A.41.41,0,0,1,104.09,389.15Zm4.56-2.63a.37.37,0,0,1-.18-.7l2.28-1.32a.38.38,0,0,1,.51.14.37.37,0,0,1-.14.51l-2.28,1.32A.41.41,0,0,1,108.65,386.52Z" style="fill:#EBA5BE"></path><path d="M73.37,406.89a.39.39,0,0,1-.33-.19.37.37,0,0,1,.14-.51l1.08-.63a.39.39,0,0,1,.52.14.37.37,0,0,1-.14.51l-1.08.63A.45.45,0,0,1,73.37,406.89Z" style="fill:#EBA5BE"></path><path d="M116,343.17a.37.37,0,0,1-.37-.37v-1.25a.37.37,0,0,1,.37-.38.38.38,0,0,1,.38.38v1.25A.38.38,0,0,1,116,343.17Z" style="fill:#EBA5BE"></path><path d="M116,376.73a.38.38,0,0,1-.37-.38V374a.38.38,0,0,1,.75,0v2.4A.38.38,0,0,1,116,376.73Zm0-4.8a.38.38,0,0,1-.37-.37v-2.4a.38.38,0,0,1,.75,0v2.4A.38.38,0,0,1,116,371.93Zm0-4.79a.38.38,0,0,1-.37-.38v-2.39a.38.38,0,1,1,.75,0v2.39A.38.38,0,0,1,116,367.14Zm0-4.79a.38.38,0,0,1-.37-.38v-2.4a.37.37,0,0,1,.37-.37.38.38,0,0,1,.38.37V362A.38.38,0,0,1,116,362.35Zm0-4.8a.37.37,0,0,1-.37-.37v-2.4a.37.37,0,0,1,.37-.38.38.38,0,0,1,.38.38v2.4A.38.38,0,0,1,116,357.55Zm0-4.79a.37.37,0,0,1-.37-.38V350a.37.37,0,0,1,.37-.38.38.38,0,0,1,.38.38v2.39A.38.38,0,0,1,116,352.76Zm0-4.8a.36.36,0,0,1-.37-.37v-2.4a.37.37,0,0,1,.37-.37.38.38,0,0,1,.38.37v2.4A.37.37,0,0,1,116,348Z" style="fill:#EBA5BE"></path><path d="M116,380.37a.38.38,0,0,1-.37-.37v-1.25a.38.38,0,1,1,.75,0V380A.38.38,0,0,1,116,380.37Z" style="fill:#EBA5BE"></path><path d="M114.3,342.88a.32.32,0,0,1-.19-.05.36.36,0,0,1-.19-.32v-3.85a.36.36,0,0,1,.19-.32l3.33-1.93a.42.42,0,0,1,.38,0,.39.39,0,0,1,.18.33v3.84a.39.39,0,0,1-.18.33l-3.34,1.92A.29.29,0,0,1,114.3,342.88Zm.37-4v3l2.58-1.49v-3Z" style="fill:#EBA5BE"></path><path d="M114.3,385.18a.41.41,0,0,1-.19-.05.37.37,0,0,1-.19-.32V381a.39.39,0,0,1,.19-.33l3.33-1.92a.37.37,0,0,1,.38,0,.39.39,0,0,1,.18.33v3.84a.39.39,0,0,1-.18.33l-3.34,1.92A.37.37,0,0,1,114.3,385.18Zm.37-4v3l2.58-1.49v-3Z" style="fill:#EBA5BE"></path><path d="M70,368.44a.41.41,0,0,1-.19-.05.37.37,0,0,1-.19-.33v-3.84a.37.37,0,0,1,.19-.33L73.18,362a.37.37,0,0,1,.56.32v3.85a.37.37,0,0,1-.18.32l-3.34,1.93A.37.37,0,0,1,70,368.44Zm.37-4v3L73,365.92v-3Z" style="fill:#EBA5BE"></path><path d="M70,410.73a.41.41,0,0,1-.19,0,.39.39,0,0,1-.19-.33v-3.85a.37.37,0,0,1,.19-.32l3.33-1.93a.42.42,0,0,1,.38,0,.4.4,0,0,1,.18.33v3.85a.38.38,0,0,1-.18.32l-3.34,1.93A.37.37,0,0,1,70,410.73Zm.37-4v3L73,408.22v-3Z" style="fill:#EBA5BE"></path><path d="M117.64,362.17a4,4,0,0,1-1.68,3.21c-.92.53-1.68,0-1.68-1.27A4,4,0,0,1,116,360.9C116.89,360.37,117.64,360.94,117.64,362.17Z" style="fill:#EBA5BE"></path><path d="M95.49,351.43a4,4,0,0,1-1.67,3.21c-.93.53-1.68,0-1.68-1.27a4,4,0,0,1,1.68-3.21C94.74,349.63,95.49,350.2,95.49,351.43Z" style="fill:#EBA5BE"></path><path d="M95.49,393.73a4,4,0,0,1-1.67,3.2c-.93.54-1.68,0-1.68-1.26a4,4,0,0,1,1.68-3.21C94.74,391.93,95.49,392.49,95.49,393.73Z" style="fill:#EBA5BE"></path><path d="M73.38,387.78A4,4,0,0,1,71.7,391c-.93.53-1.68,0-1.68-1.27a4,4,0,0,1,1.68-3.2C72.63,386,73.38,386.55,73.38,387.78Z" style="fill:#EBA5BE"></path><path d="M102.3,370V367.4a.16.16,0,0,0-.25-.16l-2,.89a.24.24,0,0,1-.33-.15,4,4,0,0,0-.44-1,.54.54,0,0,1,0-.48l1.32-2.66a.29.29,0,0,0-.12-.38L99,362.65a.3.3,0,0,0-.39.1L97,365.21a.57.57,0,0,1-.43.22,4.45,4.45,0,0,0-1.07.1.23.23,0,0,1-.3-.2L95,363.17a.17.17,0,0,0-.27-.14l-2.22,1.28a.61.61,0,0,0-.26.42L92,367.2a.75.75,0,0,1-.23.46,13.85,13.85,0,0,0-1.23,1.3.43.43,0,0,1-.44.13l-1.42-.5a.36.36,0,0,0-.4.15l-1.63,2.82a.35.35,0,0,0,.07.43l1.14,1a.41.41,0,0,1,.11.44,14,14,0,0,0-.51,1.72.83.83,0,0,1-.28.43l-2,1.43a.58.58,0,0,0-.23.43V380a.17.17,0,0,0,.25.16l2-.89a.24.24,0,0,1,.33.15,4.17,4.17,0,0,0,.44,1,.54.54,0,0,1,0,.48l-1.32,2.65a.3.3,0,0,0,.12.39l1.43.83a.3.3,0,0,0,.39-.1l1.64-2.46a.57.57,0,0,1,.43-.22,4,4,0,0,0,1.07-.11.24.24,0,0,1,.3.21l.21,2.16a.17.17,0,0,0,.27.14l2.22-1.29a.62.62,0,0,0,.27-.41l.22-2.47a.81.81,0,0,1,.23-.46,15.2,15.2,0,0,0,1.23-1.3.43.43,0,0,1,.44-.13l1.42.5a.35.35,0,0,0,.4-.15l1.63-2.83a.34.34,0,0,0-.07-.42l-1.14-1a.41.41,0,0,1-.11-.44,14,14,0,0,0,.51-1.72.85.85,0,0,1,.29-.43l2-1.43A.58.58,0,0,0,102.3,370Zm-8.68,8c-2.07,1.2-3.75.23-3.75-2.16a8.28,8.28,0,0,1,3.75-6.49c2.07-1.2,3.75-.23,3.75,2.16A8.28,8.28,0,0,1,93.62,378Z" style="fill:#EBA5BE"></path></g></g><g id="freepik--Icons--inject-3"><g id="freepik--Picture--inject-3"><path d="M236.54,400.43a1.52,1.52,0,0,0-.9-1.25l-24.11-13.92a4.79,4.79,0,0,0-4.33,0l-40.35,23.3a1.52,1.52,0,0,0-.89,1.25v4.69a1.5,1.5,0,0,0,.89,1.26L191,429.68a4.79,4.79,0,0,0,4.33,0l40.35-23.3a1.54,1.54,0,0,0,.9-1.26C236.53,404.67,236.54,400.88,236.54,400.43Z" style="fill:#EBA5BE"></path><path d="M235.64,399.18l-24.11-13.92a4.79,4.79,0,0,0-4.33,0l-14.08,8.13v36.8a4.49,4.49,0,0,0,2.17-.51l40.35-23.3a1.54,1.54,0,0,0,.9-1.26c0-.45,0-4.24,0-4.69A1.52,1.52,0,0,0,235.64,399.18Z" style="opacity:0.1"></path><path d="M193.12,393.39l-26.27,15.17a1.52,1.52,0,0,0-.89,1.25v4.69a1.5,1.5,0,0,0,.89,1.26L191,429.68a4.48,4.48,0,0,0,2.16.51Z" style="opacity:0.2"></path><path d="M195.29,425l40.35-23.3a1.32,1.32,0,0,0,0-2.5l-24.1-13.92a4.81,4.81,0,0,0-4.34,0l-40.35,23.3a1.32,1.32,0,0,0,0,2.5L191,425A4.79,4.79,0,0,0,195.29,425Z" style="fill:#EBA5BE"></path><polygon points="193.12 421.54 229.68 400.43 208.32 397.48 209.94 404.44 214.83 405.93 184.31 405.12 193.12 421.54" style="fill:#fafafa"></polygon><path d="M198.14,397.08a4.74,4.74,0,0,1,4.24-.36c1,.58.73,1.68-.62,2.46a4.77,4.77,0,0,1-4.24.36C196.52,399,196.8,397.86,198.14,397.08Z" style="fill:#fafafa"></path></g><g id="freepik--picture--inject-3"><path d="M297.47,365.25a1.51,1.51,0,0,0-.9-1.25l-24.1-13.92a4.79,4.79,0,0,0-4.33,0l-40.36,23.3a1.51,1.51,0,0,0-.89,1.25v4.69a1.51,1.51,0,0,0,.89,1.26l24.11,13.91a4.79,4.79,0,0,0,4.33,0l40.35-23.29a1.54,1.54,0,0,0,.9-1.26C297.46,369.49,297.47,365.7,297.47,365.25Z" style="fill:#EBA5BE"></path><path d="M296.57,364l-24.1-13.92a4.79,4.79,0,0,0-4.33,0l-14.09,8.13V395a4.38,4.38,0,0,0,2.17-.52l40.35-23.29a1.54,1.54,0,0,0,.9-1.26c0-.45,0-4.24,0-4.69A1.51,1.51,0,0,0,296.57,364Z" style="opacity:0.1"></path><path d="M254.05,358.21l-26.27,15.17a1.51,1.51,0,0,0-.89,1.25v4.69a1.51,1.51,0,0,0,.89,1.26l24.11,13.91a4.37,4.37,0,0,0,2.16.52Z" style="opacity:0.2"></path><path d="M256.22,389.79l40.35-23.29a1.32,1.32,0,0,0,0-2.5l-24.1-13.92a4.79,4.79,0,0,0-4.33,0l-40.36,23.3a1.32,1.32,0,0,0,0,2.5l24.11,13.91A4.79,4.79,0,0,0,256.22,389.79Z" style="fill:#EBA5BE"></path><polygon points="254.05 386.35 290.61 365.25 269.25 362.29 270.87 369.26 275.76 370.74 245.24 369.94 254.05 386.35" style="fill:#fafafa"></polygon><path d="M259.07,361.89a4.77,4.77,0,0,1,4.24-.36c1,.59.73,1.69-.62,2.47a4.8,4.8,0,0,1-4.24.35C257.46,363.78,257.73,362.67,259.07,361.89Z" style="fill:#fafafa"></path></g><g id="freepik--video--inject-3"><path d="M358.4,330.06a1.53,1.53,0,0,0-.9-1.25L333.4,314.9a4.79,4.79,0,0,0-4.33,0l-40.36,23.29a1.54,1.54,0,0,0-.89,1.25v4.69a1.49,1.49,0,0,0,.89,1.26l24.11,13.92a4.79,4.79,0,0,0,4.33,0L357.5,336a1.53,1.53,0,0,0,.9-1.26C358.39,334.3,358.4,330.52,358.4,330.06Z" style="fill:#EBA5BE"></path><path d="M357.5,328.81,333.4,314.9a4.79,4.79,0,0,0-4.33,0L315,323v36.8a4.48,4.48,0,0,0,2.16-.52L357.5,336a1.53,1.53,0,0,0,.9-1.26c0-.45,0-4.23,0-4.69A1.53,1.53,0,0,0,357.5,328.81Z" style="opacity:0.1"></path><path d="M315,323l-26.28,15.16a1.54,1.54,0,0,0-.89,1.25v4.69a1.49,1.49,0,0,0,.89,1.26l24.11,13.92a4.49,4.49,0,0,0,2.17.52Z" style="opacity:0.2"></path><path d="M317.15,354.61l40.35-23.3a1.32,1.32,0,0,0,0-2.5L333.4,314.9a4.79,4.79,0,0,0-4.33,0l-40.36,23.29a1.32,1.32,0,0,0,0,2.5l24.11,13.92A4.79,4.79,0,0,0,317.15,354.61Z" style="fill:#EBA5BE"></path><path d="M315.8,330.53c-5.39,3.11-6.48,7.52-2.44,9.85s11.68,1.7,17.06-1.41,6.47-7.51,2.44-9.84S321.18,327.42,315.8,330.53Zm12.93,1.58L324.38,338a1.63,1.63,0,0,1-2.07.29l-5.3-3.06c-.72-.42,0-1.06,1.5-1.44l8.19-2C328.25,331.38,329.16,331.54,328.73,332.11Z" style="fill:#fafafa"></path></g></g><g id="freepik--Character--inject-3"><g id="freepik--character--inject-3"><g id="freepik--girl-arm--inject-3"><path d="M408.91,169.51l-23.54.93c-.87-.74-5.81-6.63-5.81-6.63s-13.54-1.74-13.63-1.25,13.33,14.84,14.66,16.28a4,4,0,0,0,3.16,1.55l22.83,1.42Z" style="fill:#ffa8a7"></path></g><g id="freepik--Tab--inject-3"><path d="M311.42,254.87l-.7-.4a4.49,4.49,0,0,1-2-3.5V194.73a4.49,4.49,0,0,1,2-3.5L380.06,151a4.41,4.41,0,0,1,4,0l.7.4a4.47,4.47,0,0,1,2,3.49v56.25a4.45,4.45,0,0,1-2,3.49l-69.34,40.2A4.47,4.47,0,0,1,311.42,254.87Z" style="fill:#EBA5BE"></path><polygon points="318.11 245.82 379.06 210.66 366.84 189.53 357.57 209.95 360.35 216.25 338.42 192.49 318.11 245.82" style="fill:#fafafa"></polygon><path d="M358.76,180.37c2.25-1.31,4.06-.28,4.06,2.31a9,9,0,0,1-4.08,7c-2.25,1.3-4.07.26-4.06-2.31A9.08,9.08,0,0,1,358.76,180.37Z" style="fill:#fafafa"></path><path d="M386.79,154.61c-.14-1.05-1-1.43-2-.85L315.45,194a4.22,4.22,0,0,0-1.43,1.5l-4.72-2.73a4.16,4.16,0,0,1,1.43-1.51L380.06,151a4.41,4.41,0,0,1,4,0l.7.4A4.5,4.5,0,0,1,386.79,154.61Z" style="fill:#fff;opacity:0.4"></path><path d="M315.11,255a4.51,4.51,0,0,1-3.69-.16l-.7-.4a4.48,4.48,0,0,1-2-3.5V194.73a4.08,4.08,0,0,1,.59-2l4.72,2.73a4.18,4.18,0,0,0-.59,2v56.26C313.43,254.86,314.16,255.4,315.11,255Z" style="opacity:0.1"></path></g><path d="M360.33,162.48l1.12-.65a19.65,19.65,0,0,1,3.84,1.37,3.36,3.36,0,0,1,1.76,3.13c.15,1.9,1.36,1.49,2,1a15.43,15.43,0,0,0,1.76-1.42,9.77,9.77,0,0,0,1.51-2.35c0,.75,1.64,1.77,1.76,0,.08-1.25.37-3.12-.24-3.93a10.57,10.57,0,0,0-4.62-3.37c-2-.57-2.23-.22-5.45,1.2C362.09,158.18,360.14,160,360.33,162.48Z" style="fill:#ffa8a7"></path><g id="freepik--character--inject-3"><path d="M439.6,318.45s1.8-26.59.42-36.59c-1.18-8.59-2.56-12.15-2.81-14.1,0,0-2.12-20.17-2.29-37.31-.09-8.25-.85-14.13-5.37-23.93L401.13,213c-.59,4.36-3.24,33.84-3.71,59.6-.42,22.56.23,42.3.23,42.3l0,1.19a10.75,10.75,0,0,1-1.14,4.36,25.75,25.75,0,0,1-4.5,7.45c-.6.64-4.75,4.27-5.3,5-1.78,2.08,1.91,3.25,4.65,2.88s7.38-1.48,8.66-3.24c.85-1.17,1.48-5.28,2.36-6.47,2.94-4,4.14-5.73,4.17-7,0-2.31-.76-3.23-1-4.53.23-2.74,6.13-25.21,6.23-33.17.05-3.79-.21-9-.21-9l4.58-26.26c1.77,6.56,5,18.79,6,25,1.28,7.63,5.62,29.86,8.35,40a53.43,53.43,0,0,1,1.82,8s.09.89.09.9c.06,1.13.55,13.19,1,15.74.93,5.32,5.66,4.65,6.42.35.64-3.66-.17-15-.18-16.38Z" style="fill:#ffa8a7"></path><path d="M439.6,318.45c1.33,0,.46,5.18.8,8.5.37,3.56,1.53,6.16,1.87,9.08a11.89,11.89,0,0,1-1.11,7.47c-.93,2.13-5.6,5.05-7.38,2a17.19,17.19,0,0,1-1.95-9.85c.21-3.43.42-5.94.49-8.54.06-2.3-1.71-7.71,0-8l.09.9c.62,1.24,6.54,2.09,7.24-.29Z" style="fill:#37474f"></path><path d="M406.86,321.86c.41,1.67,0,6.23,0,6.23a6.08,6.08,0,0,1-3.28,2.62l-1.15-6.35Z" style="fill:#263238"></path><polygon points="403.56 330.71 397.9 328.85 396.54 323.83 402.89 327.05 403.56 330.71"></polygon><path d="M397.68,316.06l0-1.19c-.77.38-2.46,6.56-4.75,10.81-2.09,3.87-6.22,6-7.57,7.72-1.79,2.25,1.7,5.16,7.3,4,2.79-.59,7-2.37,8.14-4.25s1.53-5.32,2.46-6.7,3.16-3,3.63-4.55a8.59,8.59,0,0,0,0-4.33c-.44-1.43-.83-3.16-1.31-3l0,1.08c-.37.77-1.73,1.66-4.56,1.81C399.6,317.49,398.29,317.29,397.68,316.06Z" style="fill:#37474f"></path><path d="M400.54,209.41s-2.09,24.51-3.16,43.93c-1,18.88-.07,43.27-.07,43.27s1.95,1.39,6.25,1.59,5.78-1.24,5.78-1.24,2.62-8.56,3-14.59a61.63,61.63,0,0,0,0-9.8l3.83-25.21s5.05,23.58,5.6,26.58S427.65,299,427.65,299a10.15,10.15,0,0,0,7,1.71c4.1-.55,5.8-2.52,5.8-2.52s.85-11.35.05-17.42-2.42-10.73-2.7-14.7.28-25.49,0-34.11-1.26-15.28-7.7-26.86Z" style="fill:#EBA5BE"></path><path d="M416.2,247.36,413,231.57s-5.56-1.45-8.15-4.85c0,0,.72,3.77,6.44,6.18l3.39,15.73-1.15,16.25Z" style="fill:#263238;opacity:0.15"></path></g><path d="M422.44,169.82s8.34.72,9.51,1.25c-6,6.55,3.11,9.26,3.11,9.26L430.41,203c2.6,6.68,4.55,9.75,6,15.36-4.2,7.41-28.29,8.51-36.95,3,.39-10.38,1.28-25.13,1.2-28.09a9.83,9.83,0,0,1-2-11.45c3.49-7.17,7.06-10.22,10.27-12.29h3Z" style="fill:#455a64"></path><path d="M432.12,171.15c-2-.67-3.76.83-5.63,3.58s-12.05,25-12.05,25-16.41-.1-23.18-.82c-2.13-.23-1.66-2.51-2.51-4.78s-1.94-1.82-1.94-1.82v3c.07,2-3.28,3.12-4.72,3.68-2.36.92-4.95,1.5-7.39,2.26a3.61,3.61,0,0,0-2.16,1.31,2.29,2.29,0,0,0,.07,2.24,7.08,7.08,0,0,0,5.47,3.36c2.73.32,5.37-.46,8-.93a26,26,0,0,1,8.62-.59c3,.4,7.19,1.28,10.15,1.82A108.79,108.79,0,0,0,416.48,210c2.13.09,3.9.31,6.7-3.89,1.86-2.79,8.32-14.84,10.49-19C438.91,177.62,435.26,172.23,432.12,171.15Z" style="fill:#ffa8a7"></path><path d="M422.42,165.11c1.08-4.19,8.87-6.46,8.87-16.93A16.33,16.33,0,0,0,415,131.86h0c-9,0-12.54,6.46-12.54,15.48Z" style="fill:#263238"></path><path d="M418.62,132.86l.37-4.28a2.07,2.07,0,0,0-2.36,1.87A2.27,2.27,0,0,0,418.62,132.86Z" style="fill:#263238"></path><path d="M418.85,133.29l3.46-2.54a2.09,2.09,0,0,0-3-.54A2.26,2.26,0,0,0,418.85,133.29Z" style="fill:#263238"></path><path d="M405.51,139.84c-1.76,1-3.94,5.46-3.72,14.74.18,7.86,2.73,9.8,4,10.36s3.75.22,6.14-.18v4.72s-3.31,3.85-3.1,6,4.79,2.68,7.89.56a25,25,0,0,0,5.71-6.23L422.39,159s1.41,1.37,3.81-.72c2-1.73,2.64-4.64,1.1-6.21a3.45,3.45,0,0,0-5.48,1.1c-.66,1.42-2.16,1.45-2.17-.18-.08-8.36-1.06-8.81-1.9-12.23C412.75,139.1,409.18,139.69,405.51,139.84Z" style="fill:#ffa8a7"></path><path d="M411.94,164.76c2.53-.33,7.73-1.83,8.55-3.88a5.3,5.3,0,0,1-1.83,2.62c-1.55,1.33-6.72,2.83-6.72,2.83Z" style="fill:#f28f8f"></path><path d="M411,151.88a1,1,0,1,0,1.09-1A1.06,1.06,0,0,0,411,151.88Z" style="fill:#263238"></path><path d="M411.76,158.65l-3.17,1a1.63,1.63,0,0,0,2.06,1.14A1.74,1.74,0,0,0,411.76,158.65Z" style="fill:#f28f8f"></path><path d="M414.14,150.2,412,149a1.16,1.16,0,0,1,1.61-.52A1.28,1.28,0,0,1,414.14,150.2Z" style="fill:#263238"></path><path d="M402.89,151.57a1.06,1.06,0,0,0,1,1.13,1.07,1.07,0,0,0,1.09-1,1.06,1.06,0,0,0-1-1.13A1.07,1.07,0,0,0,402.89,151.57Z" style="fill:#263238"></path><polygon points="407.91 151.27 407.75 157.22 404.62 156.25 407.91 151.27" style="fill:#f28f8f"></polygon><path d="M410.72,133h0A13.7,13.7,0,0,0,397,146.65v1.78h6.71a6.24,6.24,0,0,0,6.18-5.4h0l.25,5.4h0a5,5,0,0,0,4.94-4.53l.08-.88h0a5.88,5.88,0,0,0,5.86,5.41h.6l.68-9.68Z" style="fill:#263238"></path></g></g></svg>